<svg xmlns="http://www.w3.org/2000/svg" xmlns:xlink="http://www.w3.org/1999/xlink" version="1.1" width="1000" height="1000" viewBox="0 0 1000 1000" xml:space="preserve">
<desc>Created with Fabric.js 3.5.0</desc>
<defs>
</defs>
<rect x="0" y="0" width="100%" height="100%" fill="#ffffff"/>
<g transform="matrix(1 0 0 1 328.6351 108.98)" style="" id="551894">
		
<path xml:space="preserve" font-family="Anton" font-size="192" font-style="normal" font-weight="normal" style="stroke: none; stroke-width: 1; stroke-dasharray: none; stroke-linecap: butt; stroke-dashoffset: 0; stroke-linejoin: miter; stroke-miterlimit: 4; is-custom-font: none; font-file-url: none; fill: rgb(36,36,69); fill-rule: nonzero; opacity: 1; white-space: pre;" d="M-289.30 60.31L-321.37 60.31L-305.43-104.69L-249.46-104.69L-233.80 60.31L-265.02 60.31L-267.37 33.69L-287.24 33.69L-289.30 60.31ZM-278.62-76.56L-284.90 7.35L-269.90 7.35L-277.12-76.56L-278.62-76.56Z"/><path xml:space="preserve" font-family="Anton" font-size="192" font-style="normal" font-weight="normal" style="stroke: none; stroke-width: 1; stroke-dasharray: none; stroke-linecap: butt; stroke-dashoffset: 0; stroke-linejoin: miter; stroke-miterlimit: 4; is-custom-font: none; font-file-url: none; fill: rgb(36,36,69); fill-rule: nonzero; opacity: 1; white-space: pre;" d="M-148.06 60.31L-181.44 60.31L-181.44-104.69L-130.81-104.69Q-118.16-104.69-111.69-98.92Q-105.22-93.15-103.02-82.79Q-100.81-72.44-100.81-58.47L-100.81-58.47Q-100.81-44.97-104.23-36.90Q-107.66-28.84-117.13-25.75L-117.13-25.75Q-109.34-24.15-106.20-18.01Q-103.06-11.87-103.06-2.12L-103.06-2.12L-103.06 60.31L-135.59 60.31L-135.59-4.28Q-135.59-11.50-138.55-13.23Q-141.50-14.97-148.06-14.97L-148.06-14.97L-148.06 60.31ZM-147.88-74.12L-147.88-43.56L-139.91-43.56Q-133.06-43.56-133.06-58.47L-133.06-58.47Q-133.06-68.12-134.56-71.12Q-136.06-74.12-140.19-74.12L-140.19-74.12L-147.88-74.12Z"/><path xml:space="preserve" font-family="Anton" font-size="192" font-style="normal" font-weight="normal" style="stroke: none; stroke-width: 1; stroke-dasharray: none; stroke-linecap: butt; stroke-dashoffset: 0; stroke-linejoin: miter; stroke-miterlimit: 4; is-custom-font: none; font-file-url: none; fill: rgb(36,36,69); fill-rule: nonzero; opacity: 1; white-space: pre;" d="M-17.32 60.31L-49.20 60.31L-49.20-104.69L-17.32-104.69L-17.32 60.31Z"/><path xml:space="preserve" font-family="Anton" font-size="192" font-style="normal" font-weight="normal" style="stroke: none; stroke-width: 1; stroke-dasharray: none; stroke-linecap: butt; stroke-dashoffset: 0; stroke-linejoin: miter; stroke-miterlimit: 4; is-custom-font: none; font-file-url: none; fill: rgb(36,36,69); fill-rule: nonzero; opacity: 1; white-space: pre;" d="M74.60 61.81L74.60 61.81Q63.45 61.81 54.26 57.50Q45.07 53.19 39.68 44.71Q34.29 36.22 34.29 23.85L34.29 23.85L34.29-17.50L66.92-17.50L66.92 21.88Q66.92 26.19 68.65 28.81Q70.39 31.44 74.23 31.44L74.23 31.44Q81.64 31.44 81.64 22.35L81.64 22.35L81.64-104.69L114.92-104.69L114.92 19.06Q114.92 32.19 109.76 41.80Q104.60 51.41 95.51 56.61Q86.42 61.81 74.60 61.81Z"/><path xml:space="preserve" font-family="Anton" font-size="192" font-style="normal" font-weight="normal" style="stroke: none; stroke-width: 1; stroke-dasharray: none; stroke-linecap: butt; stroke-dashoffset: 0; stroke-linejoin: miter; stroke-miterlimit: 4; is-custom-font: none; font-file-url: none; fill: rgb(36,36,69); fill-rule: nonzero; opacity: 1; white-space: pre;" d="M200.19 60.31L168.31 60.31L168.31-104.69L200.19-104.69L200.19 60.31Z"/><path xml:space="preserve" font-family="Anton" font-size="192" font-style="normal" font-weight="normal" style="stroke: none; stroke-width: 1; stroke-dasharray: none; stroke-linecap: butt; stroke-dashoffset: 0; stroke-linejoin: miter; stroke-miterlimit: 4; is-custom-font: none; font-file-url: none; fill: rgb(36,36,69); fill-rule: nonzero; opacity: 1; white-space: pre;" d="M302.71 60.31L269.71 60.31L269.71-73.00L250.12-73.00L250.12-104.69L322.30-104.69L322.30-73.00L302.71-73.00L302.71 60.31Z"/></g>
</svg>