<?xml version="1.0" encoding="UTF-8"?>
<svg version="1.1" xmlns="http://www.w3.org/2000/svg" width="5000" height="1425">
<path d="M0 0 C388.97098127 0 388.97098127 0 410.875 4.375 C412.03515625 4.59631592 413.1953125 4.81763184 414.390625 5.0456543 C417.59996338 5.67061886 420.80090526 6.32477903 424 7 C424.77504883 7.16226074 425.55009766 7.32452148 426.34863281 7.49169922 C453.90826242 13.47860867 477.79841763 27.7154083 498 47 C498.78246094 47.72960937 499.56492187 48.45921875 500.37109375 49.2109375 C542.71117789 89.81515366 554.95395133 152.22088594 562 208 C562.1335791 209.03930664 562.2671582 210.07861328 562.40478516 211.14941406 C569.81504216 270.48629323 571.40674973 332.50112541 565 392 C564.88785156 393.09070801 564.77570312 394.18141602 564.66015625 395.30517578 C559.91926769 439.9558592 548.18414676 484.60311676 517 518 C516.23945312 518.82628906 515.47890625 519.65257812 514.6953125 520.50390625 C499.06070814 536.88179508 478.79400033 546.77818797 458 555 C461.1817769 556.7965706 464.50969266 557.82830767 467.98999023 558.90185547 C495.24939036 567.3894349 517.17288959 584.66920144 530.53515625 610.046875 C542.6010073 634.37163072 548.05211112 660.17929756 551 687 C551.08128015 687.59898019 551.16256031 688.19796038 551.2463035 688.81509149 C552.335874 697.78385794 552.1354779 706.79982017 552.12025452 715.81777954 C552.12069093 717.74031761 552.12156714 719.66285562 552.12284368 721.58539331 C552.12507479 726.85313769 552.12108631 732.12086166 552.11606562 737.38860345 C552.11174143 743.07491571 552.11320894 748.76122684 552.1139679 754.44754028 C552.11449188 764.29443255 552.11135816 774.14131818 552.10573006 783.98820877 C552.0975981 798.22510687 552.09499809 812.46200177 552.09374207 826.69890194 C552.09155422 849.79813062 552.08490996 872.89735533 552.07543945 895.99658203 C552.06625115 918.43343081 552.05918635 940.87027863 552.05493164 963.30712891 C552.054661 964.71868591 552.05439029 966.1302429 552.05411953 967.5417999 C552.05203388 978.47094184 552.05008316 989.40008381 552.04816496 1000.32922578 C552.03873372 1053.88615376 552.01861483 1107.4430729 552 1161 C476.43 1161 400.86 1161 323 1161 C322.95101563 1128.55171875 322.90203125 1096.1034375 322.8515625 1062.671875 C322.81617513 1042.10937244 322.78030649 1021.54687241 322.7421875 1000.984375 C322.72345476 990.86660381 322.70480159 980.74883247 322.68637431 970.63106072 C322.68387498 969.25889941 322.68137279 967.8867381 322.6788677 966.51457679 C322.63905326 944.69325428 322.60551804 922.87192776 322.57531309 901.05059 C322.54331506 877.95885809 322.5040303 854.8671469 322.45720994 831.7754395 C322.4294343 817.96240485 322.40735434 804.14938586 322.39273749 790.33633092 C322.38213349 780.84318723 322.36424674 771.350074 322.34083296 761.85695335 C322.32756642 756.39335721 322.31731849 750.92980344 322.31578636 745.46619034 C323.89429538 697.210015 323.89429538 697.210015 310 652 C309.69320313 651.27167969 309.38640625 650.54335938 309.0703125 649.79296875 C307.69967189 647.4968956 306.39764226 647.13941526 304 646 C302.64284907 645.19204438 301.28609926 644.38341471 299.9296875 643.57421875 C294.8546643 640.75073198 289.73909005 639.21148809 284.125 637.8125 C282.62042236 637.43025269 282.62042236 637.43025269 281.08544922 637.0402832 C266.13877816 633.40118629 251.37291874 632.90428934 236 632 C236 806.57 236 981.14 236 1161 C158.12 1161 80.24 1161 0 1161 C0 777.87 0 394.74 0 0 Z M237 216 C237 286.62 237 357.24 237 430 C277.13026894 434.56402136 277.13026894 434.56402136 318 420 C337.80219242 399.09768578 340.1418362 363.92637904 340.16796875 336.6953125 C340.17129715 335.45490204 340.17462555 334.21449158 340.17805481 332.93649292 C340.18308903 330.32290005 340.18546423 327.70930083 340.18530273 325.09570312 C340.18747484 321.17046017 340.20562923 317.24550539 340.22460938 313.3203125 C340.26725354 294.55317337 339.69001109 275.86432231 336.1875 257.375 C335.93202393 256.01157471 335.93202393 256.01157471 335.67138672 254.62060547 C333.05553568 241.45658823 328.26705017 230.09595097 316.9921875 222.24609375 C295.53573034 208.82529015 254.13296785 216 237 216 Z " fill="#242445" transform="translate(1188,126)"/>
<path d="M0 0 C130.35 0 260.7 0 395 0 C404.27082743 95.02598111 404.27082743 95.02598111 408.12146914 135.77416348 C408.83304448 143.30132438 409.54600195 150.82835383 410.2591908 158.35536197 C411.4717755 171.15339589 412.68331569 183.95152847 413.89419937 196.74972343 C415.10518217 209.54891639 416.31670031 222.34805852 417.5288353 235.14714241 C417.60608844 235.96287086 417.68334158 236.77859931 417.76293572 237.6190468 C418.15657588 241.7755309 418.55022456 245.9320142 418.94387633 250.0884972 C421.74352855 279.64958654 424.54209197 309.21077887 427.33999634 338.77203369 C430.07729544 367.69293628 432.81500988 396.6137995 435.55331421 425.53460693 C435.68103458 426.88353854 435.68103458 426.88353854 435.81133517 428.2597213 C436.75911503 438.26978987 437.7069069 448.2798573 438.65470493 458.28992414 C440.38157453 476.52807703 442.10839112 494.76623493 443.83518982 513.00439453 C443.92064273 513.90693212 444.00609564 514.80946971 444.09413803 515.73935692 C446.68337386 543.08639276 449.272349 570.43345327 451.8611236 597.78053277 C459.39500978 677.36629235 466.93094821 756.95185676 474.86022395 840.63555759 C476.60629003 859.06308003 478.35219935 877.49061732 480.09797668 895.91816711 C480.27658781 897.80348881 480.27658781 897.80348881 480.45880724 899.72689781 C481.51461832 910.87146649 482.57042116 922.01603594 483.62620223 933.16060746 C484.30435073 940.31897639 484.98250812 947.47734448 485.66067505 954.63571167 C485.77096487 955.79987347 485.88125469 956.96403527 485.99488663 958.1634747 C487.75768691 976.7705002 489.52104108 995.37747317 491.28458285 1013.9844284 C493.02246753 1032.3208407 494.7596827 1050.65731632 496.49618244 1068.99385983 C497.50662732 1079.66341336 498.51759615 1090.33291692 499.52934514 1101.00234687 C500.19366553 1108.00847663 500.85732338 1115.01466893 501.52041377 1122.02091521 C501.89615009 1125.9907557 502.27218989 1129.96056682 502.64904964 1133.93030083 C502.98961789 1137.51780301 503.32934146 1141.10538408 503.66835614 1144.69303339 C503.8486959 1146.59907612 504.02996551 1148.5050308 504.21126306 1150.41098267 C504.3164726 1151.52621542 504.42168214 1152.64144817 504.53007984 1153.79047585 C504.62156168 1154.75597284 504.71304351 1155.72146983 504.80729753 1156.71622431 C505 1159 505 1159 505 1161 C432.07 1161 359.14 1161 284 1161 C278.13242906 1097.6302338 278.13242906 1097.6302338 276.10546875 1074.91796875 C275.98869593 1073.61068628 275.8719231 1072.30340382 275.75161171 1070.95650673 C275.20177563 1064.79994313 274.65279088 1058.64330445 274.10500449 1052.48655814 C273.48444534 1045.51227591 272.86048531 1038.53830744 272.23400801 1031.56455439 C271.73855269 1026.0468452 271.24614281 1020.52886937 270.75601083 1015.01068479 C270.46739075 1011.76205827 270.17711863 1008.51359455 269.88432884 1005.26534081 C269.56263017 1001.6930835 269.24592153 998.12041664 268.93041992 994.54760742 C268.83541702 993.50530975 268.74041412 992.46301208 268.64253235 991.38912964 C268.51453751 989.92259697 268.51453751 989.92259697 268.38395691 988.42643738 C268.30933322 987.59045108 268.23470953 986.75446478 268.15782452 985.89314556 C267.94186484 981.93430071 268 977.9647309 268 974 C222.13 974 176.26 974 129 974 C128.67 980.6 128.34 987.2 128 994 C127.58803408 999.8695901 127.15776006 1005.7352783 126.69311523 1011.60058594 C126.56259581 1013.27505804 126.43232241 1014.94954934 126.30226994 1016.62405777 C125.95877698 1021.03821151 125.61199443 1025.45210052 125.26444244 1029.86593628 C124.93674377 1034.03433238 124.61212906 1038.20296663 124.28723145 1042.37158203 C123.34035999 1054.49795904 122.38864519 1066.62395746 121.4375 1078.75 C119.313125 1105.8925 117.18875 1133.035 115 1161 C40.09 1161 -34.82 1161 -112 1161 C-110.78176199 1145.16290593 -109.53006482 1129.35927236 -107.99015808 1113.55535889 C-107.7950663 1111.53322099 -107.6001983 1109.51106149 -107.40552938 1107.48888284 C-106.87617392 1101.99665383 -106.34370772 1096.50473044 -105.81068225 1091.01285656 C-105.22930967 1085.01687129 -104.65093121 1079.02059706 -104.07216549 1073.0243597 C-103.06014838 1062.54361966 -102.04629864 1052.06305804 -101.03119278 1041.58261681 C-99.94454486 1030.36338923 -98.85908045 1019.14404803 -97.7750206 1007.92457008 C-97.70633921 1007.21375577 -97.63765782 1006.50294146 -97.56689518 1005.77058732 C-97.2167046 1002.14623872 -96.86653531 998.52188806 -96.51637518 994.89753651 C-93.99154531 968.76443988 -91.46443067 942.63156463 -88.93606567 916.49880981 C-86.43718991 890.67068481 -83.93920955 864.84247346 -81.44259644 839.01412964 C-81.36498925 838.21125612 -81.28738206 837.4083826 -81.20742315 836.58117959 C-80.0235329 824.33334338 -78.83974964 812.08549684 -77.65600586 799.83764648 C-77.57726718 799.02296236 -77.4985285 798.20827824 -77.4174038 797.36890672 C-75.89214187 781.58749034 -74.3669195 765.80607014 -72.84178978 750.02464098 C-72.51769269 746.67101979 -72.19359522 743.31739865 -71.8694973 739.96377754 C-71.7891136 739.13200214 -71.70872991 738.30022673 -71.62591035 737.44324601 C-70.48010229 725.58697201 -69.33415776 713.73071121 -68.18811085 701.8744603 C-60.02993105 617.47521738 -51.88241422 533.07495838 -39.93828075 409.00026973 C-38.84432431 397.63434474 -37.75022953 386.26843306 -36.65603828 374.90253067 C-36.57945021 374.10697158 -36.50286213 373.31141249 -36.42395321 372.49174555 C-36.11543264 369.28698761 -35.80691189 366.08222968 -35.4983907 362.87747181 C-34.05198226 347.85289314 -32.60568723 332.82830356 -31.15942383 317.80371094 C-31.0850578 317.03115663 -31.01069178 316.25860232 -30.93407224 315.46263727 C-27.39294707 278.67543615 -23.85300534 241.88812165 -20.3158995 205.10053384 C-17.95634229 180.56002109 -15.59528372 156.0196533 -13.23216489 131.47948324 C-12.90641675 128.09668257 -12.58069023 124.71387982 -12.25497818 121.33107567 C-12.1911427 120.66809211 -12.12730723 120.00510855 -12.06153734 119.32203458 C-10.98846598 108.17671716 -9.91751606 97.03119654 -8.84715703 85.88561834 C-7.91857047 76.21767123 -6.98816681 66.54990015 -6.05625245 56.88227325 C-5.52486378 51.36907421 -4.99431518 45.8557977 -4.46601427 40.34230185 C-3.98630311 35.3360384 -3.50426287 30.33000508 -3.02030702 25.32415023 C-2.84613909 23.51823774 -2.67284653 21.71224058 -2.50050382 19.906153 C-2.26747825 17.46542465 -2.03131713 15.02501964 -1.79434299 12.58467197 C-1.72794667 11.88120353 -1.66155035 11.17773509 -1.59314201 10.45294942 C-1.24344842 6.8886298 -0.70532327 3.52661634 0 0 Z M190 199 C189.14469979 201.56590064 188.79911179 203.3844005 188.60008425 206.03172958 C188.53620001 206.85648859 188.47231578 207.6812476 188.40649566 208.5309993 C188.34013582 209.43869218 188.27377598 210.34638506 188.20540524 211.28158379 C188.13165132 212.24858869 188.05789741 213.21559359 187.98190853 214.21190166 C187.73336687 217.48319483 187.49036579 220.7548766 187.24729919 224.02658081 C187.06939632 226.38344025 186.89115781 228.74027439 186.71261078 231.09708512 C186.32397814 236.237475 185.93776399 241.37804082 185.55365181 246.51877022 C184.98242911 254.16358695 184.40682359 261.80806922 183.83034792 269.45249141 C182.80086425 283.10612698 181.7758391 296.76009456 180.75272734 310.41420892 C179.85693334 322.36914785 178.95979466 334.32398486 178.06129646 346.27872086 C177.94088721 347.8808644 177.82047807 349.48300796 177.70006906 351.08515153 C177.51862748 353.49935564 177.33718439 355.91355963 177.15573733 358.32776333 C175.467855 380.78588698 173.78149504 403.24412454 172.0983572 425.70260429 C172.03486023 426.54985733 171.97136325 427.39711037 171.90594212 428.27003775 C171.39028245 435.15071839 170.87466642 442.03140231 170.35905321 448.91208644 C168.34920448 475.73240409 166.33479242 502.55237546 164.31665039 529.37207031 C162.04992454 559.4954245 159.7863985 589.61901653 157.52774674 619.74297726 C157.28680201 622.95635929 157.04584761 626.16974059 156.80488777 629.38312149 C156.7455588 630.17435072 156.68622983 630.96557994 156.62510301 631.78078581 C155.72974997 643.72065981 154.83192294 655.66034613 153.93285942 667.59994125 C152.90983982 681.18578176 151.89024961 694.77187472 150.87518578 708.35831206 C150.3072438 715.95877583 149.73664457 723.55902891 149.16217421 731.15900209 C148.73311226 736.8393108 148.30914223 742.51999053 147.88712812 748.20082678 C147.715902 750.49515806 147.54304669 752.78936847 147.36837869 755.08344029 C147.1306764 758.20864517 146.89899816 761.33424287 146.66875362 764.46000481 C146.60005262 765.34428602 146.53135161 766.22856724 146.46056876 767.13964486 C145.95435583 774.14798298 146 780.91479433 146 788 C180.32 788 214.64 788 250 788 C249.18901091 774.00155501 249.18901091 774.00155501 248.11449432 760.03028297 C248.03090977 759.05088178 247.94732521 758.07148059 247.86120778 757.06240058 C247.58504138 753.83288492 247.30565826 750.6036564 247.02624512 747.37442017 C246.82378658 745.01489144 246.62152726 742.65534562 246.41944838 740.29578435 C245.92472403 734.52530892 245.42788404 728.75501845 244.93011378 722.98480503 C244.33326988 716.06472997 243.73910745 709.14442531 243.14499743 702.22411511 C241.91392717 687.88553329 240.67975659 673.54721937 239.44459736 659.20898928 C238.49138211 648.14350248 237.53897852 637.0779461 236.58714294 626.01234055 C236.45020544 624.42041016 236.31326757 622.82847981 236.17632934 621.23654949 C235.96996764 618.83755381 235.76360602 616.43855813 235.55724594 614.03956232 C233.64054404 591.75761028 231.72289038 569.47574031 229.8032608 547.1940403 C229.69485743 545.93576595 229.69485743 545.93576595 229.58426408 544.65207193 C229.21799895 540.40074273 228.85172497 536.1494143 228.4854477 531.89808615 C228.4127072 531.05379685 228.33996669 530.20950754 228.26502193 529.33963372 C228.11792361 527.63228488 227.97082483 525.92493609 227.82372557 524.21758734 C225.53137268 497.61048218 223.24222372 471.00310305 220.95556641 444.39550781 C218.3852208 414.48696816 215.81242634 384.57864061 213.23603296 354.67062128 C212.96163342 351.48516108 212.68724249 348.29970015 212.41285706 345.11423874 C212.34529661 344.32991889 212.27773616 343.54559904 212.20812842 342.73751193 C211.1870596 330.88316671 210.16792404 319.02865628 209.14976501 307.17406082 C207.99324399 293.70851756 206.83417859 280.24319616 205.67166841 266.77816857 C205.07826156 259.90408591 204.4860399 253.02990615 203.89714241 246.15543556 C203.35872644 239.87164572 202.8169578 233.58815457 202.27243382 227.30489115 C202.07533079 225.02350696 201.87948975 222.74201334 201.68499082 220.46040566 C201.42186933 217.37594795 201.15428352 214.29191023 200.88550568 211.20794106 C200.80980561 210.30780895 200.73410555 209.40767684 200.65611154 208.480268 C200.58388303 207.66226756 200.51165452 206.84426712 200.43723726 206.00147879 C200.37647258 205.29572651 200.31570789 204.58997422 200.25310186 203.8628355 C200.02812476 201.77499853 200.02812476 201.77499853 199 199 C196.03 199 193.06 199 190 199 Z " fill="#242445" transform="translate(296,126)"/>
<path d="M0 0 C77.22 0 154.44 0 234 0 C234.06039235 104.10370512 234.06039235 104.10370512 234.07695007 136.32292175 C234.07783807 138.04652797 234.07783807 138.04652797 234.07874402 139.80495451 C234.09862676 178.50187055 234.11437565 217.19878712 234.12702942 255.89570618 C234.12744359 257.15905657 234.12785776 258.42240697 234.12828448 259.72404071 C234.13704543 286.51419856 234.1452039 313.30435656 234.15263903 340.09451481 C234.15637501 353.55353931 234.16022992 367.01256377 234.16419732 380.47158821 C234.16479507 382.50174002 234.16538943 384.53189183 234.16598364 386.56204364 C234.17515578 417.79685821 234.18686742 449.03166928 234.20599365 480.26647949 C234.20640435 480.93726289 234.20681505 481.60804628 234.20723819 482.29915644 C234.2138747 493.1130998 234.22072576 503.92704301 234.22760532 514.74098621 C234.25641319 560.03139567 234.27557186 605.32180054 234.28174497 650.61221954 C234.28260938 656.92045831 234.28358629 663.22869706 234.28463173 669.53693581 C234.284834 670.77843282 234.28503627 672.01992984 234.28524467 673.29904797 C234.28878362 693.2475491 234.30268103 713.19603008 234.3204961 733.144523 C234.33820316 753.22138691 234.34489261 773.29823093 234.34050413 793.37510236 C234.33823021 805.28890965 234.34423542 817.20264388 234.36239263 829.11643792 C234.37371628 837.09485767 234.37393947 845.07323009 234.36549544 853.05165322 C234.36100491 857.58481968 234.36099833 862.11784889 234.37464955 866.6510001 C234.56167978 932.74493768 222.21937818 999.67354669 184 1055 C183.61666504 1055.56444824 183.23333008 1056.12889648 182.83837891 1056.71044922 C176.5031076 1066.02031826 169.52247569 1074.62635041 162 1083 C161.4426416 1083.62052246 160.8852832 1084.24104492 160.31103516 1084.88037109 C141.76987315 1105.3903207 121.10611944 1122.32441301 97 1136 C96.26523438 1136.42087891 95.53046875 1136.84175781 94.7734375 1137.27539062 C23.68848977 1177.58575733 -66.67343554 1181.07958857 -144.28588867 1159.81494141 C-148.54413179 1158.60658994 -152.77706651 1157.3261386 -157 1156 C-158.06661865 1155.66645508 -158.06661865 1155.66645508 -159.15478516 1155.32617188 C-185.15105926 1147.03804261 -209.72534048 1134.70402033 -232 1119 C-233.55460937 1117.90751953 -233.55460937 1117.90751953 -235.140625 1116.79296875 C-242.98688903 1111.09313035 -250.04549875 1104.73401508 -257 1098 C-257.68852051 1097.33339355 -258.37704102 1096.66678711 -259.08642578 1095.97998047 C-267.56075336 1087.7314844 -275.92565481 1079.50935531 -283 1070 C-283.66128906 1069.12069824 -283.66128906 1069.12069824 -284.3359375 1068.22363281 C-307.763951 1036.86492015 -321.94139175 1001.45803897 -329.1875 963.125 C-329.3424292 962.32521729 -329.4973584 961.52543457 -329.65698242 960.70141602 C-333.1555831 941.15153252 -333.28828732 921.4707882 -333.23213124 901.67795122 C-333.22336724 897.79075903 -333.2264259 893.90357198 -333.22793579 890.01637268 C-333.22897659 883.30668715 -333.22278515 876.59704098 -333.21146011 869.88736534 C-333.1950975 860.18670856 -333.1899862 850.48607052 -333.18748413 840.78540144 C-333.18312376 825.04076144 -333.16986003 809.29614234 -333.15087891 793.55151367 C-333.13247693 778.27124127 -333.11836462 762.99097461 -333.10986328 747.71069336 C-333.10905929 746.27978633 -333.10905929 746.27978633 -333.10823905 744.8199721 C-333.10407939 737.35782013 -333.10016583 729.89566804 -333.09632993 722.43351591 C-333.07751577 685.95565807 -333.03726666 649.47785267 -333 613 C-257.1 613 -181.2 613 -103 613 C-102.95101562 633.69976563 -102.90203125 654.39953125 -102.8515625 675.7265625 C-102.81618083 688.83333738 -102.78031601 701.94010825 -102.7421875 715.046875 C-102.7221809 721.93294228 -102.70229669 728.8190099 -102.68261719 735.70507812 C-102.68014575 736.56807785 -102.67767431 737.43107758 -102.67512798 738.32022882 C-102.63546029 752.23401664 -102.6026953 766.14781253 -102.57250018 780.06162377 C-102.54133378 794.35185234 -102.50270237 808.64204682 -102.45720994 822.93223703 C-102.42939516 831.74273958 -102.40733191 840.55321734 -102.39273749 849.36375187 C-102.38215657 855.41387954 -102.36429348 861.46395907 -102.34083296 867.51405038 C-102.32752936 870.99925682 -102.31731262 874.4843961 -102.31578636 877.96962929 C-102.29599803 900.38967568 -102.25245214 921.81194254 -89 941 C-88.4225 941.9075 -87.845 942.815 -87.25 943.75 C-77.70004369 953.29995631 -65.13458741 956.37803634 -52.0625 956.5 C-38.74717985 956.36484743 -27.57005995 953.48781107 -17 945 C-10.0905978 937.1736491 -5.89533201 928.21862645 -3.625 918.125 C-3.46966797 917.44348877 -3.31433594 916.76197754 -3.15429688 916.05981445 C-0.65156575 903.68758026 -0.85136892 890.75552081 -0.8613348 878.19235325 C-0.85888066 876.65021744 -0.85599482 875.10808227 -0.85272202 873.56594798 C-0.84501772 869.3540804 -0.84338324 865.14222968 -0.8427946 860.93035593 C-0.84105501 856.33854366 -0.83356385 851.74674006 -0.82681805 847.15493292 C-0.81579266 839.11605607 -0.80840168 831.07718233 -0.80341911 823.03829956 C-0.79599367 811.08486189 -0.78290608 799.13143505 -0.76867336 787.17800379 C-0.74488875 767.06830358 -0.72567369 746.95860144 -0.70907402 726.84889412 C-0.69262621 706.94130247 -0.67414061 687.03371442 -0.65294075 667.12612724 C-0.65162314 665.88776432 -0.65030554 664.64940139 -0.648948 663.37351231 C-0.6422458 657.08434651 -0.63550727 650.79518075 -0.62875474 644.506015 C-0.5810073 599.97414701 -0.53781703 555.44227546 -0.49731445 510.91040039 C-0.4875003 500.12213132 -0.4776701 489.33386226 -0.46777344 478.54559326 C-0.46715964 477.87647979 -0.46654584 477.20736631 -0.46591344 476.51797668 C-0.4373434 445.39718357 -0.40619369 414.27639321 -0.37438093 383.15560328 C-0.37231499 381.13456164 -0.37025017 379.11352001 -0.36818558 377.09247838 C-0.35450131 363.6986331 -0.34077253 350.30478787 -0.32701423 336.91094267 C-0.29898861 309.62678083 -0.27124333 282.34261872 -0.2436676 255.05845642 C-0.2423994 253.80400867 -0.2411312 252.54956092 -0.23982458 251.25709961 C-0.20097208 212.81129852 -0.16330766 174.3654964 -0.1268158 135.91969299 C-0.1257794 134.82829598 -0.12474301 133.73689897 -0.12367522 132.61242932 C-0.08171696 88.4082869 -0.04101659 44.2041433 0 0 Z " fill="#242445" transform="translate(3079,126)"/>
<path d="M0 0 C167.64 0 335.28 0 508 0 C508 73.92 508 147.84 508 224 C462.46 224 416.92 224 370 224 C370 533.21 370 842.42 370 1161 C293.11 1161 216.22 1161 137 1161 C137 851.79 137 542.58 137 224 C91.79 224 46.58 224 0 224 C0 150.08 0 76.16 0 0 Z " fill="#252545" transform="translate(4304,126)"/>
<path d="M0 0 C74.25 0 148.5 0 225 0 C225 383.13 225 766.26 225 1161 C150.75 1161 76.5 1161 0 1161 C0 777.87 0 394.74 0 0 Z " fill="#252545" transform="translate(3708,126)"/>
<path d="M0 0 C74.25 0 148.5 0 225 0 C225 383.13 225 766.26 225 1161 C150.75 1161 76.5 1161 0 1161 C0 777.87 0 394.74 0 0 Z " fill="#252545" transform="translate(2138,126)"/>
</svg>
