<?xml version="1.0" encoding="UTF-8"?>
<svg version="1.1" xmlns="http://www.w3.org/2000/svg" width="5000" height="1545">
<path d="M0 0 C1650 0 3300 0 5000 0 C5000 509.85 5000 1019.7 5000 1545 C3350 1545 1700 1545 0 1545 C0 1035.15 0 525.3 0 0 Z " fill="#050522" transform="translate(0,0)"/>
<path d="M0 0 C394.78789573 0 394.78789573 0 418.9375 5.75 C420.04391846 6.00604004 421.15033691 6.26208008 422.2902832 6.52587891 C462.89007314 16.25153792 498.17014261 39.56021383 520.43017578 75.37915039 C522.34984438 78.55086675 524.18002743 81.77034693 526 85 C526.56267578 85.98178223 526.56267578 85.98178223 527.13671875 86.98339844 C540.94404024 111.216897 548.35486653 137.75334808 553.43408203 165.01025391 C553.94994507 167.7355597 554.49595867 170.45199981 555.05859375 173.16796875 C560.60771321 200.26496765 562.96905743 227.82424496 564.82214355 255.38200378 C564.95936178 257.40181701 565.10574505 259.42100897 565.25598145 261.43989563 C565.99363162 271.9872663 566.14714538 282.48028509 566.1328125 293.05078125 C566.13348895 294.84327711 566.13446178 296.63577288 566.13571167 298.42826843 C566.13717379 302.16043991 566.13508322 305.89258722 566.13037109 309.62475586 C566.1246873 314.35083356 566.12795387 319.07685427 566.13394356 323.80292988 C566.13760039 327.49837148 566.13638718 331.19380013 566.13381577 334.88924217 C566.13315992 336.62913203 566.13392651 338.36902315 566.13629532 340.10891151 C566.2006548 400.65659662 558.51043743 470.54529518 516 517 C513.45289539 519.50360567 510.77003364 521.74934766 508 524 C507.154375 524.75539063 506.30875 525.51078125 505.4375 526.2890625 C490.57021989 539.33833281 472.78019622 548.00950679 454 554 C457.68094139 556.05755185 461.6081902 557.17393874 465.625 558.375 C493.67788948 567.04343406 515.1518639 583.23353399 529.12890625 609.29296875 C538.18464694 626.88335773 543.26317386 645.72708464 546.75 665.125 C546.94867676 666.19975586 547.14735352 667.27451172 547.35205078 668.38183594 C551.81507853 694.82345879 551.28518313 721.7175494 551.23213124 748.43174613 C551.22338419 753.9712003 551.22642474 759.51065072 551.22793579 765.05010986 C551.22897762 774.6162396 551.22277508 784.18234178 551.21146011 793.74846458 C551.19511193 807.57897188 551.18998764 821.40946602 551.18748413 835.23998193 C551.18312154 857.68644383 551.16986905 880.13289236 551.15087891 902.5793457 C551.13246804 924.36645433 551.11835535 946.15355899 551.10986328 967.94067383 C551.109322 969.31410104 551.10878059 970.68752825 551.10823905 972.06095546 C551.10406708 982.69678824 551.1001659 993.33262111 551.09632993 1003.968454 C551.07750876 1055.97898279 551.03726127 1107.98947484 551 1160 C475.43 1160 399.86 1160 322 1160 C321.96261719 1126.31550781 321.92523437 1092.63101562 321.88671875 1057.92578125 C321.85644746 1036.60220963 321.82544512 1015.27864284 321.79101562 993.95507812 C321.77410667 983.46556436 321.75733578 972.97605039 321.7409003 962.48653587 C321.73867083 961.06387307 321.73643702 959.64121028 321.73419879 958.2185475 C321.69860637 935.57237306 321.67258483 912.92620019 321.65161031 890.28000788 C321.629373 866.32709801 321.59609069 842.37422595 321.55129844 818.42134732 C321.52484191 804.08468735 321.50710238 789.74807176 321.50065396 775.4113886 C321.4953817 765.56880618 321.47910325 755.72627954 321.45433434 745.88372705 C321.44038221 740.21237708 321.4311249 734.54112679 321.43499184 728.86975861 C321.43843387 723.66333493 321.42785658 718.45712317 321.40676448 713.25074282 C321.40155083 711.38094066 321.40120353 709.51111617 321.40660437 707.64131454 C321.5036826 675.5464437 321.5036826 675.5464437 307 648 C289.05005196 630.35064917 255.79999731 631.75172405 234 631 C234 805.57 234 980.14 234 1160 C156.78 1160 79.56 1160 0 1160 C0 777.2 0 394.4 0 0 Z " fill="#232344" transform="translate(1189,168)"/>
<path d="M0 0 C130.02 0 260.04 0 394 0 C394.89181015 2.67543046 395.24529201 4.72529246 395.49316406 7.50415039 C395.57726028 8.42573441 395.66135651 9.34731842 395.7480011 10.29682922 C395.83631699 11.30360214 395.92463287 12.31037506 396.015625 13.34765625 C396.11147385 14.40474289 396.20732269 15.46182953 396.30607605 16.5509491 C396.51407942 18.84645764 396.72057433 21.14210326 396.92575073 23.43786621 C397.47990628 29.63251678 398.04620523 35.82605191 398.61328125 42.01953125 C398.78713097 43.92017838 398.78713097 43.92017838 398.9644928 45.85922241 C399.95882006 56.67269919 401.03310559 67.47699914 402.13467407 78.27999878 C404.24814049 99.0080715 406.19045952 119.74903147 408.0625 140.5 C408.1924472 141.93959616 408.32240121 143.3791917 408.45236206 144.81878662 C408.70876665 147.6593507 408.96514463 150.49991717 409.22151184 153.34048462 C409.31494842 154.3756616 409.31494842 154.3756616 409.4102726 155.43175125 C409.53490382 156.81256567 409.65951608 158.19338181 409.78410912 159.57419968 C410.83130629 171.17682945 411.89563755 182.77766269 413 194.375 C413.07648773 195.17907288 413.15297546 195.98314575 413.23178101 196.81158447 C414.23986007 207.37819 415.29377929 217.93984203 416.3671875 228.5 C416.87045247 233.45826654 417.37305572 238.41659959 417.875 243.375 C418.00129791 244.6220874 418.12759583 245.8691748 418.25772095 247.15405273 C420.61245811 270.47880285 422.72038957 293.82182795 424.73094654 317.17851543 C426.14393447 333.59240317 427.66888307 349.98856264 429.33276367 366.37890625 C430.1327092 374.26871125 430.86102728 382.16337402 431.5625 390.0625 C431.81434836 392.86595363 432.06737584 395.66930063 432.3203125 398.47265625 C432.43793945 399.7786377 432.55556641 401.08461914 432.67675781 402.43017578 C433.69754871 413.70359313 434.79991435 424.96909077 435.90625 436.234375 C436.25025245 439.73955861 436.59398478 443.24476861 436.9375 446.75 C437.06785141 448.07988953 437.06785141 448.07988953 437.20083618 449.43664551 C438.50782361 462.78740012 439.76555362 476.14170203 440.96069336 489.50292969 C441.68756981 497.62449048 442.44616909 505.74245595 443.22270203 513.85940552 C443.81034855 520.00198786 444.38990137 526.14527918 444.96484375 532.2890625 C445.28825563 535.73445126 445.61256271 539.17975477 445.9375 542.625 C446.02304138 543.53209717 446.10858276 544.43919434 446.19671631 545.3737793 C447.24232178 556.42849818 448.34926124 567.46919475 449.625 578.5 C450.55468538 586.5562652 451.307356 594.59792198 451.875 602.6875 C452.70143222 614.26019985 453.89105741 625.77757 455.125 637.3125 C457.63156811 660.79446686 459.86114539 684.30034096 462.0625 707.8125 C462.19353308 709.21183084 462.19353308 709.21183084 462.32721329 710.639431 C463.33836124 721.44098314 464.34582029 732.24287709 465.35159779 743.04493046 C465.99606806 749.96392037 466.64562584 756.88242619 467.296875 763.80078125 C469.76624364 790.07534315 469.76624364 790.07534315 470.7265625 801.59375 C470.78541122 802.29952179 470.84425995 803.00529358 470.90489197 803.73245239 C471.02346206 805.15580206 471.14202794 806.57915207 471.2605896 808.00250244 C471.31897003 808.70292664 471.37735046 809.40335083 471.4375 810.125 C471.49483307 810.81333923 471.55216614 811.50167847 471.61123657 812.21087646 C472.90999851 827.70504528 474.50290373 843.16861896 476.11108398 858.63330078 C479.38787572 890.15848505 482.30010368 921.71945966 485.26037598 953.27557373 C487.11786993 973.07475086 488.97769304 992.87349146 490.90103149 1012.66639709 C494.58966217 1050.63507776 498.19323319 1088.61353263 501.60992432 1126.60769653 C501.82681453 1129.01929182 502.04453562 1131.43081255 502.26312256 1133.84225464 C502.5624062 1137.14979481 502.85803367 1140.45763903 503.15234375 1143.765625 C503.28305016 1145.20407524 503.28305016 1145.20407524 503.41639709 1146.67158508 C503.49417892 1147.5562999 503.57196075 1148.44101471 503.65209961 1149.35253906 C503.71981064 1150.11085022 503.78752167 1150.86916138 503.85728455 1151.65045166 C504.02605331 1154.42892005 504 1157.21641069 504 1160 C431.4 1160 358.8 1160 284 1160 C281.03 1124.36 278.06 1088.72 275 1052 C272.31864207 1022.92577117 272.31864207 1022.92577117 269.52148438 993.86401367 C268.9038036 986.91828585 268.46384629 979.95769439 268 973 C221.8 973 175.6 973 128 973 C128 976.63 128 980.26 128 984 C127.87085262 986.55085798 127.71085258 989.10043048 127.51319885 991.64689636 C127.46081824 992.33668731 127.40843762 993.02647825 127.35446972 993.73717195 C127.18113967 996.00634231 127.00185946 998.27499932 126.82250977 1000.54370117 C126.69569784 1002.18746739 126.56925346 1003.831262 126.44314575 1005.4750824 C126.10190406 1009.90901638 125.75542324 1014.34252648 125.40785336 1018.77596831 C125.04381008 1023.42979763 124.68430478 1028.08397771 124.32420349 1032.7381134 C123.71924949 1040.548209 123.11106074 1048.35804725 122.50073242 1056.16772461 C121.79613222 1065.18396805 121.09579073 1074.20053407 120.39791828 1083.21730059 C119.65308854 1092.84040229 118.90537035 1102.46327789 118.15669131 1112.08608079 C117.94184338 1114.84984557 117.72750759 1117.61364969 117.51327705 1120.37746239 C117.17609507 1124.72542452 116.83695543 1129.07322983 116.49632645 1133.42092323 C116.37193055 1135.01234081 116.24816354 1136.60380769 116.12508583 1138.19532776 C115.95640419 1140.37504446 115.78538173 1142.5545657 115.61378479 1144.73405457 C115.51884011 1145.95128299 115.42389544 1147.16851141 115.32607365 1148.42262554 C114.97348054 1152.29094665 114.4817952 1156.14563839 114 1160 C39.42 1160 -35.16 1160 -112 1160 C-110.68 1146.8 -109.36 1133.6 -108 1120 C-107.07507511 1110.43820777 -106.15587972 1100.87608376 -105.25 1091.3125 C-105.0649241 1089.36580197 -104.87984598 1087.41910414 -104.69466686 1085.47241592 C-103.20608019 1069.82095073 -101.73302745 1054.16805119 -100.26852989 1038.51431465 C-99.49228064 1030.21780518 -98.71506776 1021.92138599 -97.9375 1013.625 C-97.85113407 1012.70326366 -97.76476814 1011.78152733 -97.67578506 1010.83185959 C-95.59090119 988.58676375 -93.46974065 966.34806353 -91.15060425 944.12594604 C-89.12311125 924.65981855 -87.30820793 905.17495263 -85.5 885.6875 C-85.34690928 884.03842109 -85.19381277 882.38934272 -85.04071045 880.74026489 C-84.51394027 875.06564518 -83.98727579 869.39101564 -83.46089172 863.71636009 C-82.18039421 849.91325574 -80.88745185 836.1114198 -79.5625 822.3125 C-79.46841858 821.33213776 -79.37433716 820.35177551 -79.27740479 819.34170532 C-77.89449591 804.96503846 -76.46235087 790.59340736 -75.01953125 776.22265625 C-74.84186113 774.45186888 -74.66419289 772.68108132 -74.48652649 770.91029358 C-73.69556857 763.02991894 -72.90329544 755.14968561 -72.10515594 747.27003479 C-70.37045692 730.13214967 -68.702744 712.99278532 -67.21619225 695.83146477 C-66.24391294 684.61064319 -65.16349187 673.40606241 -63.97940063 662.20568848 C-61.18186592 635.67575865 -58.75705808 609.11274083 -56.33203125 582.546875 C-54.65445902 564.17159694 -52.89504352 545.80843998 -50.99880981 527.45443726 C-49.0061489 508.1433437 -47.1000459 488.82524437 -45.25872803 469.49917603 C-44.00813692 456.38068731 -42.7354967 443.26467713 -41.421875 430.15234375 C-41.32138761 429.1491702 -41.32138761 429.1491702 -41.21887016 428.12573051 C-40.50055303 420.9581106 -39.77890778 413.79083001 -39.05493164 406.6237793 C-37.70028041 393.18721507 -36.40526834 379.74774508 -35.20571899 366.29644775 C-31.89466935 329.33509401 -28.22168455 292.4039254 -24.59375 255.47265625 C-24.37520611 253.24723331 -24.15666467 251.02181013 -23.93812561 248.79638672 C-22.95071946 238.74307067 -21.9626283 228.6898237 -20.971632 218.63686085 C-20.54859336 214.34320908 -20.12649793 210.04946487 -19.70455933 205.75570488 C-19.51099537 203.78806977 -19.31705092 201.82047203 -19.12261963 199.85292244 C-16.98752369 178.24372821 -15.01132157 156.62170687 -13 135 C-8.71 90.45 -4.42 45.9 0 0 Z " fill="#232344" transform="translate(296,168)"/>
<path d="M0 0 C77.22 0 154.44 0 234 0 C234.02013078 101.99183126 234.02013078 101.99183126 234.02565002 133.55432129 C234.02584736 134.67997268 234.02604469 135.80562406 234.02624801 136.9653861 C234.03287462 174.86799652 234.03812466 212.77060701 234.04234314 250.67321777 C234.0424812 251.91047344 234.04261925 253.14772911 234.04276149 254.42247737 C234.04575461 281.31326154 234.04852476 308.20404573 234.05106533 335.09482995 C234.05231263 348.28262101 234.05360919 361.47041207 234.05493164 374.65820312 C234.05512778 376.62668815 234.05512778 376.62668815 234.05532788 378.63494056 C234.05958701 421.14877885 234.06709666 463.66261581 234.07629722 506.1764533 C234.08573708 549.87557164 234.09188713 593.57468924 234.09391499 637.27380858 C234.09420313 643.45013244 234.09452877 649.6264563 234.09487724 655.80278015 C234.09494467 657.01833442 234.09501209 658.23388869 234.09508156 659.48627794 C234.09626193 679.03035091 234.10089637 698.5744216 234.10683203 718.11849364 C234.11272954 737.78079063 234.11496541 757.44308537 234.11350138 777.10538322 C234.1127425 788.77804178 234.11475337 800.45069207 234.12079754 812.12334914 C234.12456483 819.93464804 234.12465149 827.74594156 234.12183181 835.55724083 C234.12033126 839.99901888 234.12034863 844.44078135 234.12488318 848.88255769 C234.17239599 898.35832848 234.17239599 898.35832848 231.625 916.25 C231.42547729 917.72835327 231.42547729 917.72835327 231.22192383 919.23657227 C230.95120734 921.2230524 230.67543578 923.20885173 230.39404297 925.19384766 C230.02548642 927.81850008 229.68320154 930.44517744 229.34765625 933.07421875 C222.34802722 985.97322786 199.80775406 1039.15295661 164 1079 C162.89045697 1080.28501118 161.78109544 1081.5701791 160.671875 1082.85546875 C151.38328356 1093.47458815 141.22096664 1103.44344199 130 1112 C128.80061147 1112.93988755 127.60140507 1113.88000755 126.40234375 1114.8203125 C81.66934605 1149.51178046 23.61865861 1170.08900658 -33.125 1170.16796875 C-34.06163986 1170.17220352 -34.99827972 1170.17643829 -35.96330261 1170.18080139 C-38.97558148 1170.19062798 -41.98770803 1170.1907314 -45 1170.1875 C-46.03121979 1170.18689575 -47.06243958 1170.1862915 -48.12490845 1170.18566895 C-63.83805615 1170.16063902 -79.3793659 1169.85443374 -95 1168 C-96.04929687 1167.88172852 -97.09859375 1167.76345703 -98.1796875 1167.64160156 C-123.75579547 1164.65721604 -149.00421945 1158.36155937 -173 1149 C-174.14903809 1148.56034912 -174.14903809 1148.56034912 -175.32128906 1148.11181641 C-202.60588539 1137.57443479 -229.15504452 1121.98006245 -250.703125 1102.11328125 C-252.76628284 1100.21503568 -254.86839125 1098.38289387 -257 1096.5625 C-265.51682827 1089.10813321 -273.12267831 1080.98337081 -280 1072 C-280.48339844 1071.37125977 -280.96679688 1070.74251953 -281.46484375 1070.09472656 C-290.42533943 1058.33547256 -298.06983637 1046.05368118 -305 1033 C-305.41233887 1032.2260791 -305.82467773 1031.4521582 -306.24951172 1030.65478516 C-319.06679057 1006.18831761 -326.22094524 979.07341201 -330.25 951.875 C-330.41346924 950.78002197 -330.57693848 949.68504395 -330.74536133 948.55688477 C-333.38471661 929.44513721 -333.14439399 910.17454871 -333.11606562 890.92459834 C-333.11168882 887.1832478 -333.1132126 883.44189864 -333.1139679 879.70054626 C-333.11448861 873.24075209 -333.11138948 866.78096813 -333.10573006 860.32117653 C-333.09755318 850.98175842 -333.09499354 841.64234518 -333.09374207 832.30292388 C-333.0915612 817.1450617 -333.08492745 801.98720494 -333.07543945 786.8293457 C-333.06624025 772.11743191 -333.05918321 757.4055196 -333.05493164 742.69360352 C-333.05466364 741.77533954 -333.05439565 740.85707557 -333.05411953 739.91098541 C-333.05203973 732.72802721 -333.05008294 725.54506898 -333.04816496 718.36211073 C-333.03875574 683.24140217 -333.01863167 648.12070722 -333 613 C-257.43 613 -181.86 613 -104 613 C-103.96261719 633.35300781 -103.92523437 653.70601562 -103.88671875 674.67578125 C-103.85643934 687.57748038 -103.82543081 700.47917159 -103.79101562 713.38085938 C-103.77296782 720.16105085 -103.75510421 726.94124278 -103.73754883 733.72143555 C-103.7342373 734.99596341 -103.7342373 734.99596341 -103.73085886 736.29623932 C-103.69557228 749.98036277 -103.67066695 763.66448618 -103.64965298 777.34863815 C-103.62782382 791.41177039 -103.59470647 805.47484404 -103.55129844 819.53792638 C-103.52490373 828.20255841 -103.50711891 836.86711757 -103.50065396 845.53178778 C-103.49536253 851.4885268 -103.47902127 857.44517443 -103.45433434 863.40186433 C-103.44044657 866.82898849 -103.43110001 870.25594956 -103.43499184 873.68310356 C-103.44542653 897.00446331 -103.2025774 921.24832815 -89 941 C-88.44570312 941.54269531 -87.89140625 942.08539062 -87.3203125 942.64453125 C-86 944 -86 944 -86 946 C-85.43925781 946.2784375 -84.87851563 946.556875 -84.30078125 946.84375 C-82.75020202 947.62298846 -81.20596977 948.41497057 -79.66796875 949.21875 C-72.28794625 953.03079312 -65.34011504 955.41935908 -57 956 C-55.9171875 956.07734375 -54.834375 956.1546875 -53.71875 956.234375 C-41.1895105 956.70816977 -28.56781611 954.43124605 -18.88671875 945.875 C-17.95279297 944.946875 -17.95279297 944.946875 -17 944 C-16.05060547 943.071875 -16.05060547 943.071875 -15.08203125 942.125 C2.37085325 923.66736522 -0.40948068 895.46684761 -0.47599602 871.89975448 C-0.48465292 867.24536304 -0.46992657 862.59103218 -0.458287 857.93665528 C-0.44109064 849.79566374 -0.43853927 841.65477221 -0.44580269 833.51376724 C-0.45653549 821.40858067 -0.44427583 809.30349209 -0.42743097 797.19831635 C-0.39973468 776.83150382 -0.39049745 756.46472241 -0.39188385 736.09789276 C-0.3931953 715.94043477 -0.38623899 695.78300737 -0.36830902 675.62555695 C-0.36719763 674.37090156 -0.36608624 673.11624617 -0.36494118 671.82357092 C-0.35925387 665.45146929 -0.35341951 659.0793678 -0.34752855 652.70726636 C-0.30609791 607.60692968 -0.28309832 562.50660178 -0.27099609 517.40625 C-0.26805704 506.48400875 -0.26505298 495.56176752 -0.26177979 484.63952637 C-0.26147536 483.62336983 -0.26147536 483.62336983 -0.26116478 482.58668488 C-0.25163343 451.06914543 -0.23165247 419.55161511 -0.20899166 388.03408268 C-0.20751992 385.98686739 -0.20605267 383.9396521 -0.20458635 381.89243681 C-0.19486138 368.32494876 -0.18495665 354.75746084 -0.17493158 341.18997301 C-0.15451209 313.55293923 -0.13523351 285.91590469 -0.11663818 258.27886963 C-0.11578185 257.00824246 -0.11492553 255.7376153 -0.11404325 254.42848428 C-0.08786246 215.49266903 -0.06648949 176.55685321 -0.04986572 137.62103271 C-0.04939201 136.51588611 -0.04891829 135.4107395 -0.04843022 134.2721036 C-0.02931806 89.51473684 -0.01529914 44.75736819 0 0 Z " fill="#232344" transform="translate(3079,168)"/>
<path d="M0 0 C167.64 0 335.28 0 508 0 C508 73.59 508 147.18 508 223 C462.46 223 416.92 223 370 223 C370 532.21 370 841.42 370 1160 C293.44 1160 216.88 1160 138 1160 C138 850.46 138 540.92 138 222 C92.46 222 46.92 222 0 222 C0 148.74 0 75.48 0 0 Z " fill="#232344" transform="translate(4304,168)"/>
<path d="M0 0 C73.92 0 147.84 0 224 0 C224 382.8 224 765.6 224 1160 C150.08 1160 76.16 1160 0 1160 C0 777.2 0 394.4 0 0 Z " fill="#232344" transform="translate(3709,168)"/>
<path d="M0 0 C73.92 0 147.84 0 224 0 C224 382.8 224 765.6 224 1160 C150.08 1160 76.16 1160 0 1160 C0 777.2 0 394.4 0 0 Z " fill="#232344" transform="translate(2139,168)"/>
<path d="M0 0 C3.63 0 7.26 0 11 0 C12.89443706 18.23289798 14.50844246 36.49087381 16.125 54.75 C16.23593239 56.00111069 16.23593239 56.00111069 16.34910583 57.27749634 C18.98253497 86.97948906 21.51499276 116.68961469 23.99196625 146.40504456 C24.24568425 149.4482353 24.49980181 152.49139249 24.75396729 155.5345459 C25.23898879 161.3457845 25.72187527 167.15719787 26.203125 172.96875 C26.27988842 173.89522591 26.35665184 174.82170181 26.43574142 175.77625275 C27.27778116 185.95914783 28.09539009 196.14340755 28.86523438 206.33203125 C28.93413754 207.24163857 29.0030407 208.15124588 29.07403183 209.08841705 C29.39964293 213.39547896 29.72136176 217.70277471 30.03643799 222.01062012 C30.15019911 223.53377797 30.26402583 225.05693093 30.37792969 226.58007812 C30.42646843 227.26272232 30.47500717 227.94536652 30.52501678 228.6486969 C30.79169134 232.17619155 31.30171673 235.53764352 32 239 C32.25390212 241.44994873 32.47556705 243.90331472 32.67675781 246.3581543 C32.737255 247.08626281 32.79775219 247.81437132 32.86008263 248.56454372 C33.060474 250.9842203 33.2567717 253.40421142 33.453125 255.82421875 C33.59464183 257.54135391 33.73644272 259.25846568 33.87850952 260.97555542 C34.18093989 264.63666217 34.48167866 268.29790227 34.78106689 271.95925903 C35.4897805 280.62446608 36.20744841 289.28893372 36.92435074 297.95346642 C37.16438144 300.85541842 37.40408569 303.75739728 37.64376831 306.65937805 C38.93631008 322.29679844 40.26746642 337.93057725 41.625 353.5625 C42.02100079 358.12889174 42.41679418 362.69530144 42.8125 367.26171875 C42.9089682 368.37450699 43.0054364 369.48729523 43.10482788 370.63380432 C44.29495922 384.37944405 45.46047228 398.12717141 46.625 411.875 C46.72355286 413.03726105 46.82210571 414.19952209 46.92364502 415.39700317 C47.84757292 426.29563483 48.76928559 437.19442657 49.67041016 448.0949707 C50.9949522 464.10536146 52.34941854 480.11274019 53.74578476 496.11704254 C54.00802635 499.12354541 54.2697387 502.13009389 54.53128052 505.13665771 C54.70704973 507.15686051 54.88282082 509.17706315 55.05859375 511.19726562 C55.1459976 512.20191486 55.23340145 513.2065641 55.3234539 514.24165726 C55.77085532 519.38108196 56.21976541 524.52036812 56.67138672 529.65942383 C57.11934497 534.75812005 57.56319937 539.85715994 58.00448227 544.95643806 C58.1696443 546.85668677 58.33621496 548.75681373 58.50439835 550.65679741 C58.5834428 551.55045572 58.66248726 552.44411404 58.743927 553.36485291 C58.81265078 554.1367694 58.88137455 554.90868589 58.95218086 555.7039938 C59.91492741 567.1629775 60.45149745 578.48144646 61 590 C26.35 590 -8.3 590 -44 590 C-42.85065342 567.01306836 -42.85065342 567.01306836 -42.23144531 558.67578125 C-42.16120022 557.70488399 -42.09095512 556.73398672 -42.01858139 555.73366833 C-41.790713 552.59310757 -41.55954641 549.45280078 -41.328125 546.3125 C-41.16368948 544.06066309 -40.99938609 541.80881654 -40.83520508 539.55696106 C-40.39995034 533.5986122 -39.96128553 527.64051939 -39.52156067 521.68249893 C-39.24829605 517.97689356 -38.97601856 514.27121677 -38.70397949 510.56552124 C-36.67687691 482.97039501 -34.61712176 455.38076424 -32.25 427.8125 C-30.64182362 409.07331981 -29.2159738 390.33282874 -27.96231079 371.56661987 C-26.10558767 343.82486205 -24.01872709 316.10067265 -21.9375 288.375 C-21.80779627 286.64629732 -21.80779627 286.64629732 -21.67547226 284.88267136 C-20.92206912 274.84125951 -20.16848132 264.79986189 -19.41117859 254.75874329 C-18.64086188 244.54312711 -17.87478638 234.32724489 -17.12158203 224.11035156 C-16.91749027 221.35194644 -16.71324557 218.59355268 -16.50894356 215.83516312 C-16.38253924 214.12256831 -16.2568485 212.40992065 -16.13194084 210.69721603 C-15.96157554 208.36132204 -15.78877331 206.02561962 -15.61547852 203.68994141 C-15.52009293 202.38940826 -15.42470734 201.08887512 -15.32643127 199.74893188 C-15.09565432 197.09855142 -14.82387466 194.48480876 -14.48562622 191.84875488 C-14.10080321 188.79890011 -13.8017834 185.79573155 -13.61450195 182.72998047 C-13.55363403 181.75820358 -13.49276611 180.7864267 -13.43005371 179.78520203 C-13.3667688 178.73975723 -13.30348389 177.69431244 -13.23828125 176.6171875 C-13.09052538 174.26520082 -12.94247988 171.91323233 -12.79418945 169.5612793 C-12.71609039 168.31212738 -12.63799133 167.06297546 -12.55752563 165.77597046 C-10.91360683 139.6036938 -9.0306156 113.45260739 -7.01430893 87.30649567 C-6.81285202 84.69206831 -6.61223148 82.07757786 -6.41177368 79.46307373 C-6.09364095 75.31775496 -5.77310969 71.17262859 -5.45051575 67.02765465 C-5.3314959 65.4964181 -5.2130113 63.96513984 -5.09510803 62.43381691 C-4.0856237 49.34797006 -4.0856237 49.34797006 -3.4519043 44.48535156 C-2.97836227 40.83311709 -2.71376405 37.21137311 -2.5 33.53515625 C-2.4390918 32.51874306 -2.4390918 32.51874306 -2.37695312 31.48179626 C-2.24885284 29.34216734 -2.12403628 27.2023681 -2 25.0625 C-1.01492266 8.11031949 -1.01492266 8.11031949 0 0 Z " fill="#010109" transform="translate(485,365)"/>
<path d="M0 0 C75.40695489 0 75.40695489 0 87.4140625 11.24609375 C107.91774325 33.9213466 104.22607029 77.76535557 104.25 106.4375 C104.25133942 107.39611938 104.25267883 108.35473877 104.25405884 109.34240723 C104.24931089 125.09314549 103.40044948 140.41167965 101 156 C100.80332862 157.48159108 100.60789457 158.96334728 100.4140625 160.4453125 C98.24413089 174.62032029 93.53370606 191.78006391 83 202 C82.31164063 202.7115625 81.62328125 203.423125 80.9140625 204.15625 C59.88707421 224.51922814 26.24232678 214 0 214 C0 143.38 0 72.76 0 0 Z " fill="#010108" transform="translate(1425,383)"/>
</svg>
