<svg xmlns="http://www.w3.org/2000/svg" xmlns:xlink="http://www.w3.org/1999/xlink" version="1.1" width="1000" height="1000" viewBox="0 0 1000 1000" xml:space="preserve">
<desc>Created with Fabric.js 3.5.0</desc>
<defs>
</defs>
<rect x="0" y="0" width="100%" height="100%" fill="#1d0d2c"/>
<g transform="matrix(1 0 0 1 498.9174 238.3751)" style="" id="551894">
		
<path xml:space="preserve" font-family="Anton" font-size="302" font-style="normal" font-weight="normal" style="stroke: none; stroke-width: 1; stroke-dasharray: none; stroke-linecap: butt; stroke-dashoffset: 0; stroke-linejoin: miter; stroke-miterlimit: 4; is-custom-font: none; font-file-url: none; fill: rgb(36,36,69); fill-rule: nonzero; opacity: 1; white-space: pre;" d="M-402.20 94.87L-452.63 94.87L-427.56-164.66L-339.53-164.66L-314.90 94.87L-364.01 94.87L-367.69 52.99L-398.96 52.99L-402.20 94.87ZM-385.39-120.42L-395.27 11.55L-371.68 11.55L-383.03-120.42L-385.39-120.42Z"/><path xml:space="preserve" font-family="Anton" font-size="302" font-style="normal" font-weight="normal" style="stroke: none; stroke-width: 1; stroke-dasharray: none; stroke-linecap: butt; stroke-dashoffset: 0; stroke-linejoin: miter; stroke-miterlimit: 4; is-custom-font: none; font-file-url: none; fill: rgb(36,36,69); fill-rule: nonzero; opacity: 1; white-space: pre;" d="M-201.18 94.87L-253.68 94.87L-253.68-164.66L-174.05-164.66Q-154.14-164.66-143.97-155.59Q-133.79-146.52-130.33-130.23Q-126.86-113.93-126.86-91.96L-126.86-91.96Q-126.86-70.73-132.24-58.05Q-137.63-45.37-152.52-40.50L-152.52-40.50Q-140.28-37.99-135.34-28.33Q-130.40-18.67-130.40-3.34L-130.40-3.34L-130.40 94.87L-181.57 94.87L-181.57-6.73Q-181.57-18.08-186.21-20.81Q-190.86-23.54-201.18-23.54L-201.18-23.54L-201.18 94.87ZM-200.89-116.59L-200.89-68.52L-188.35-68.52Q-177.59-68.52-177.59-91.96L-177.59-91.96Q-177.59-107.15-179.95-111.87Q-182.31-116.59-188.79-116.59L-188.79-116.59L-200.89-116.59Z"/><path xml:space="preserve" font-family="Anton" font-size="302" font-style="normal" font-weight="normal" style="stroke: none; stroke-width: 1; stroke-dasharray: none; stroke-linecap: butt; stroke-dashoffset: 0; stroke-linejoin: miter; stroke-miterlimit: 4; is-custom-font: none; font-file-url: none; fill: rgb(36,36,69); fill-rule: nonzero; opacity: 1; white-space: pre;" d="M-16.68 94.87L-66.81 94.87L-66.81-164.66L-16.68-164.66L-16.68 94.87Z"/><path xml:space="preserve" font-family="Anton" font-size="302" font-style="normal" font-weight="normal" style="stroke: none; stroke-width: 1; stroke-dasharray: none; stroke-linecap: butt; stroke-dashoffset: 0; stroke-linejoin: miter; stroke-miterlimit: 4; is-custom-font: none; font-file-url: none; fill: rgb(36,36,69); fill-rule: nonzero; opacity: 1; white-space: pre;" d="M106.78 97.23L106.78 97.23Q89.23 97.23 74.78 90.45Q60.33 83.66 51.85 70.32Q43.37 56.97 43.37 37.51L43.37 37.51L43.37-27.52L94.68-27.52L94.68 34.41Q94.68 41.19 97.41 45.32Q100.14 49.45 106.19 49.45L106.19 49.45Q117.84 49.45 117.84 35.15L117.84 35.15L117.84-164.66L170.18-164.66L170.18 29.99Q170.18 50.63 162.07 65.75Q153.96 80.86 139.66 89.05Q125.36 97.23 106.78 97.23Z"/><path xml:space="preserve" font-family="Anton" font-size="302" font-style="normal" font-weight="normal" style="stroke: none; stroke-width: 1; stroke-dasharray: none; stroke-linecap: butt; stroke-dashoffset: 0; stroke-linejoin: miter; stroke-miterlimit: 4; is-custom-font: none; font-file-url: none; fill: rgb(36,36,69); fill-rule: nonzero; opacity: 1; white-space: pre;" d="M283.17 94.87L233.03 94.87L233.03-164.66L283.17-164.66L283.17 94.87Z"/><path xml:space="preserve" font-family="Anton" font-size="302" font-style="normal" font-weight="normal" style="stroke: none; stroke-width: 1; stroke-dasharray: none; stroke-linecap: butt; stroke-dashoffset: 0; stroke-linejoin: miter; stroke-miterlimit: 4; is-custom-font: none; font-file-url: none; fill: rgb(36,36,69); fill-rule: nonzero; opacity: 1; white-space: pre;" d="M423.29 94.87L371.38 94.87L371.38-114.82L340.56-114.82L340.56-164.66L454.11-164.66L454.11-114.82L423.29-114.82L423.29 94.87Z"/></g>
</svg>