<?xml version="1.0" encoding="UTF-8"?>
<svg version="1.1" xmlns="http://www.w3.org/2000/svg" width="3408" height="1455">
<path d="M0 0 C6.80821582 7.50346714 10.15307353 15.73339793 13.35058594 25.14208984 C14.5395555 28.54361555 15.94973985 31.85506711 17.3359375 35.1796875 C18 37 18 37 18 39 C19.60463449 38.68991116 21.20869231 38.37683713 22.8125 38.0625 C23.70582031 37.88847656 24.59914063 37.71445312 25.51953125 37.53515625 C28.11397171 37.02258847 28.11397171 37.02258847 31 36 C43.04712175 35.33779035 53.23495827 35.33165645 63.015625 43.1953125 C68.93805037 48.58145526 75.4095863 54.57417281 76.30859375 62.8359375 C76.79742019 75.3084181 72.05515 85.65760684 66.3125 96.5 C65.75216064 97.56750488 65.19182129 98.63500977 64.61450195 99.73486328 C58.60741137 111.00684302 51.94320775 121.85973566 45.23942566 132.7237854 C25.07787924 165.44111509 6.22697361 198.98412764 -12.01611328 232.80126953 C-16.2962831 240.72746171 -20.64004544 248.61755314 -25 256.5 C-30.00025856 265.5402065 -34.96635588 274.59706587 -39.875 283.6875 C-44.71483102 292.64768821 -49.61922491 301.56822435 -54.58349609 310.45996094 C-56.81998997 314.47038532 -59.04873378 318.4851087 -61.27807617 322.49951172 C-62.55768783 324.80349988 -63.83780374 327.10720805 -65.1184082 329.41064453 C-68.35523539 335.23288496 -71.58609368 341.05827378 -74.8046875 346.890625 C-81.33364726 358.70795748 -87.96245357 370.45084904 -94.80541992 382.08935547 C-98.92555892 389.11159603 -102.92259524 396.19471322 -106.875 403.3125 C-113.29694848 414.8531456 -119.98335202 426.22349807 -126.75630188 437.5610199 C-129.44358359 442.06078711 -132.11482062 446.56988145 -134.78125 451.08203125 C-143.69329907 466.15642616 -152.66545947 481.18184959 -162 496 C-162.56525391 496.8986377 -163.13050781 497.79727539 -163.71289062 498.72314453 C-175.11263571 516.81882588 -186.80408576 534.61896153 -199.44482422 551.87451172 C-200.92894173 553.90288332 -202.40508434 555.93679655 -203.87890625 557.97265625 C-218.1147028 577.5885952 -233.3832043 596.57250096 -249.71899414 614.48339844 C-251.09551173 616.00209086 -252.46324439 617.5289055 -253.8137207 619.07080078 C-260.66459177 626.85592104 -267.99790875 634.14938551 -275.33862305 641.46899414 C-277.56479862 643.68979307 -279.78555632 645.91590966 -282.00585938 648.14257812 C-283.44238771 649.57844584 -284.87922611 651.01400343 -286.31640625 652.44921875 C-286.96871719 653.10355392 -287.62102814 653.7578891 -288.29310608 654.43205261 C-324.54864559 690.50648656 -374.30375783 723.11921055 -426 729 C-427.39992188 729.16628906 -427.39992188 729.16628906 -428.828125 729.3359375 C-453.39298249 731.81927009 -477.75026164 729.42276584 -498 714 C-502.1734969 710.51485908 -506.0887442 706.77372923 -510 703 C-510.72058594 702.34257813 -511.44117188 701.68515625 -512.18359375 701.0078125 C-532.64683349 681.8209519 -545.43450581 652.19293121 -546.5 624.3125 C-546.24055068 617.76140479 -544.0222468 612.69632906 -540.125 607.5 C-537.32554155 605.52391169 -535.42344344 605.06986619 -532 605 C-528.67591449 606.31417334 -527.32001365 607.48188266 -525.44140625 610.5234375 C-523.64162372 614.86437639 -523.16398612 618.92371373 -522.625 623.5625 C-519.82853191 644.105928 -509.90502621 660.81346981 -494 674 C-483.54513594 681.88265956 -473.01501609 686.74802554 -459.875 686.4375 C-458.8658252 686.42211182 -457.85665039 686.40672363 -456.81689453 686.39086914 C-415.97015128 685.34710186 -380.37248953 662.35190041 -350 637 C-349.03578125 636.22269531 -348.0715625 635.44539063 -347.078125 634.64453125 C-338.63773972 627.7362465 -330.90970549 620.12552019 -323.1875 612.4375 C-322.65179382 611.90697021 -322.11608765 611.37644043 -321.56414795 610.82983398 C-315.32333377 604.63657569 -309.45506232 598.33738622 -303.96411133 591.4543457 C-301.33146889 588.16460618 -298.54412298 585.0270403 -295.75 581.875 C-289.34834305 574.56448915 -283.45843994 566.91965066 -277.625 559.15283203 C-275.4798154 556.31084919 -273.30309732 553.49378244 -271.12719727 550.67529297 C-251.26061347 524.88003173 -233.00250271 497.76515535 -216 470 C-215.52481934 469.22543457 -215.04963867 468.45086914 -214.56005859 467.65283203 C-202.59458483 448.08261747 -191.41586938 428.12540642 -180.95751953 407.71069336 C-178.3316969 402.58831426 -175.69549304 397.47142683 -173.05151367 392.35839844 C-161.50068947 370.00449305 -150.2158505 347.52347931 -139 325 C-135.6275713 318.22788222 -132.25291563 311.45688265 -128.875 304.6875 C-128.47680054 303.88891571 -128.07860107 303.09033142 -127.66833496 302.26754761 C-122.76699415 292.44277537 -117.82929436 282.64400748 -112.58740234 272.99487305 C-110.65000757 269.68703659 -110.65000757 269.68703659 -110 266 C-112.1907786 268.16343185 -114.37762406 270.33061964 -116.5625 272.5 C-117.17158203 273.10070312 -117.78066406 273.70140625 -118.40820312 274.3203125 C-119.01728516 274.92617188 -119.62636719 275.53203125 -120.25390625 276.15625 C-120.80377197 276.70087891 -121.3536377 277.24550781 -121.92016602 277.80664062 C-123.69013769 279.67322421 -125.35924368 281.57806482 -127.03173828 283.53074646 C-131.34044557 288.46213894 -135.93765304 293.07783921 -140.57202148 297.70141602 C-141.51593273 298.64668561 -142.45963184 299.59216708 -143.40313721 300.5378418 C-145.94424597 303.08347326 -148.48846409 305.62597487 -151.033427 308.1677525 C-153.70975005 310.84152509 -156.38361113 313.51775801 -159.05787659 316.19358826 C-163.54728698 320.68481254 -168.03878919 325.17393676 -172.53149414 329.66186523 C-177.70876049 334.83369047 -182.88241482 340.00910801 -188.05420822 345.18640572 C-192.51288577 349.64963666 -196.97352836 354.11089667 -201.43578774 358.57054657 C-204.09292878 361.22613706 -206.7494098 363.88237833 -209.40411186 366.54040718 C-211.90122531 369.04043182 -214.40081539 371.53795467 -216.9022522 374.03365326 C-218.24537124 375.37484224 -219.58606205 376.71846162 -220.926651 378.06217957 C-225.25819032 382.37876984 -229.6516895 386.55513583 -234.29618931 390.53442287 C-236.8672145 392.74595713 -239.33096747 395.06353054 -241.8125 397.375 C-256.99019527 411.35980348 -273.5953959 423.92055155 -291 435 C-291.90782227 435.5875708 -291.90782227 435.5875708 -292.83398438 436.18701172 C-312.54700553 448.8873508 -333.31655428 456.82283988 -357.03125 452.125 C-381.44778919 446.44610262 -402.60427094 433.88431281 -420 416 C-421.34578125 414.63294922 -421.34578125 414.63294922 -422.71875 413.23828125 C-441.14640573 393.67425342 -442.94076216 369.98960239 -442.20117188 344.29638672 C-441.6785753 335.73315986 -439.84565142 327.35959939 -438 319 C-437.66304515 317.33406173 -437.32736702 315.66784883 -437 314 C-437.78117187 314.85335938 -438.56234375 315.70671875 -439.3671875 316.5859375 C-447.85508873 325.78126873 -456.59691127 334.70820058 -465.4375 343.5625 C-465.99862488 344.12612244 -466.55974976 344.68974487 -467.13787842 345.27044678 C-472.72358549 350.87654188 -478.29749643 356.45471054 -484.34985352 361.56420898 C-486.15312146 363.13323085 -487.82674992 364.79370727 -489.5 366.5 C-492.42467115 369.47057406 -495.48619561 372.20729119 -498.64453125 374.92578125 C-501.01625718 377.01431603 -503.32883936 379.15519097 -505.63818359 381.31201172 C-511.01483595 386.33116138 -516.4814183 391.14157149 -522.22265625 395.74609375 C-524.64805674 397.71438641 -527.01816048 399.73330003 -529.37817383 401.77905273 C-561.5433152 429.54270146 -599.47745582 458.69804297 -644 456 C-658.83316112 454.09330824 -672.20251567 448.92533475 -682.1875 437.49609375 C-702.39476812 411.20368238 -700.47654251 378.25282845 -696.64160156 347.08740234 C-692.17902106 314.5945929 -681.00915374 283.51030033 -667 254 C-666.63358398 253.21802246 -666.26716797 252.43604492 -665.88964844 251.63037109 C-654.83123062 228.16388603 -640.63426873 206.25975493 -627 184.23388672 C-623.65704267 178.82851406 -620.32930928 173.41378527 -617 168 C-615.66673931 165.83328863 -614.33340598 163.66662196 -613 161.5 C-612.34 160.4275 -611.68 159.355 -611 158.25 C-609 155 -607 151.75 -605 148.5 C-604.00963745 146.89064575 -604.00963745 146.89064575 -602.99926758 145.2487793 C-601.66841199 143.08615928 -600.33752017 140.92356155 -599.0065918 138.76098633 C-595.63504875 133.28258992 -592.26417261 127.80378508 -588.89453125 122.32421875 C-580.61905949 108.86869574 -572.32432753 95.42535776 -564 82 C-567.64249718 83.72821679 -570.36790175 85.86772579 -573.4375 88.5 C-577.6828455 92.10523161 -581.99660501 95.57640476 -586.4375 98.9375 C-592.07888217 103.22197641 -597.48976681 107.73507717 -602.87109375 112.33984375 C-605.77051583 114.81779148 -608.72181411 117.22659018 -611.6875 119.625 C-616.13903808 123.24834495 -620.42382455 127.01963872 -624.66796875 130.8828125 C-626.75823889 132.78051169 -628.86986115 134.64733415 -631 136.5 C-634.8985793 139.89553681 -638.73569717 143.35674744 -642.5703125 146.82421875 C-644.64806226 148.68484032 -646.75294291 150.50302808 -648.875 152.3125 C-652.93005993 155.83399941 -656.68976941 159.63050254 -660.43701172 163.47387695 C-663.06022645 166.14385528 -665.74296033 168.66663056 -668.58984375 171.09765625 C-673.94275698 175.73040098 -678.9070011 180.75744546 -683.90014648 185.76977539 C-685.5592732 187.43426277 -687.22368051 189.09333447 -688.88867188 190.75195312 C-693.9296694 195.7901264 -698.87266734 200.86221532 -703.50366211 206.28540039 C-706.31333053 209.50489807 -709.40079027 212.44354989 -712.4609375 215.421875 C-715.88642099 218.79298573 -719.06182785 222.32156518 -722.20556641 225.95605469 C-725.10970177 229.26400316 -728.15503306 232.43516352 -731.1875 235.625 C-737.52509022 242.34000522 -743.60294615 249.22778913 -749.55273438 256.28662109 C-751.99933106 259.18308121 -754.46905353 262.05966249 -756.9375 264.9375 C-757.42798828 265.51040771 -757.91847656 266.08331543 -758.42382812 266.67358398 C-761.60282856 270.3836267 -764.80215321 274.07536147 -768.01025391 277.76025391 C-773.00203197 283.49607574 -777.90549302 289.28146202 -782.69140625 295.19140625 C-785.41344582 298.50299077 -788.20157608 301.75297044 -791 305 C-796.0986627 310.92239097 -801.07997457 316.92796861 -806 323 C-807.01915052 324.24900868 -808.03870902 325.49768452 -809.05859375 326.74609375 C-814.73903744 333.70662551 -820.37095243 340.69963884 -825.90356445 347.77832031 C-829.25708234 352.06644509 -832.65286089 356.31891094 -836.0625 360.5625 C-840.19836826 365.7151246 -844.26902777 370.91121623 -848.28369141 376.15869141 C-852.66813188 381.8862712 -857.131156 387.55109259 -861.59570312 393.21630859 C-863.49346476 395.6267826 -865.38623948 398.04115329 -867.27929688 400.45532227 C-869.1075439 402.78532294 -870.93895499 405.11281952 -872.77148438 407.43945312 C-873.86478704 408.828243 -874.95598051 410.21869271 -876.046875 411.609375 C-907.6758157 451.60299423 -907.6758157 451.60299423 -918.4375 455.125 C-930.36747785 454.70640429 -938.87063141 450.80584076 -947.54296875 442.6796875 C-951.89165343 437.93692487 -954.98145518 432.6555884 -958 427 C-958.52980469 426.06542969 -959.05960938 425.13085938 -959.60546875 424.16796875 C-971.85276238 399.63907534 -956.54199332 359.84666523 -948.58740234 335.68188477 C-943.96130997 321.90485223 -938.3115012 308.62417946 -932.5 295.3125 C-931.52690632 293.07002477 -930.55409008 290.82742913 -929.58154297 288.5847168 C-921.92411413 270.96384474 -914.07213849 253.43466873 -906 236 C-908.932145 238.31320608 -911.57412516 240.48133884 -913.9375 243.375 C-917.4228853 247.46554011 -921.18104516 251.22550971 -925 255 C-929.25375134 259.20895755 -933.36383271 263.44027816 -937.23046875 268.01171875 C-940.36825105 271.53739466 -943.78079604 274.79771849 -947.15625 278.09375 C-949.3067878 280.23821284 -951.30193681 282.47813211 -953.28125 284.78125 C-958.00737776 290.23923179 -963.18318684 295.23044881 -968.328125 300.2890625 C-972.54098874 304.45893784 -976.57796113 308.68713157 -980.39453125 313.22460938 C-982.14168666 315.1566827 -984.01155913 316.81964161 -986 318.5 C-988.67420611 320.76593036 -991.00020601 323.06335281 -993.25 325.75 C-996.04667275 329.05455516 -999.05517699 331.92753906 -1002.28125 334.8125 C-1009.87597218 341.68563057 -1017.04676311 348.97165488 -1024.25 356.25 C-1039.37763968 371.53367132 -1039.37763968 371.53367132 -1045.48730469 376.70996094 C-1047.43494403 378.37092387 -1049.22278794 380.15931609 -1051 382 C-1054.19124849 385.23479379 -1057.49646123 388.26121228 -1060.94140625 391.22265625 C-1063.11366159 393.09813287 -1065.24355667 395.01582966 -1067.375 396.9375 C-1104.46085073 429.8606532 -1149.59640616 457.63537036 -1199 466 C-1200.14597656 466.20625 -1201.29195312 466.4125 -1202.47265625 466.625 C-1220.61421881 469.41899466 -1241.66720649 470.81098932 -1259 464 C-1259.84820313 463.68804688 -1260.69640625 463.37609375 -1261.5703125 463.0546875 C-1276.67288671 456.96246265 -1287.78738087 445.81382384 -1294.34765625 431.10546875 C-1305.64652527 403.94091819 -1304.84625103 369.23550288 -1298 341 C-1297.79632812 340.10651855 -1297.59265625 339.21303711 -1297.3828125 338.29248047 C-1287.26525011 294.08279234 -1266.64084806 251.66549428 -1244.15625 212.53125 C-1241.63403203 208.13731311 -1239.1951421 203.70500756 -1236.7878418 199.24731445 C-1231.90338717 190.2140318 -1226.65714684 181.49680724 -1221.10546875 172.859375 C-1218.37504587 168.61070174 -1215.72558525 164.31637447 -1213.08935547 160.00878906 C-1207.02731118 150.11384121 -1200.72127825 140.45864666 -1194 131 C-1193.484375 130.27184082 -1192.96875 129.54368164 -1192.4375 128.79345703 C-1182.14919033 114.2976986 -1171.59607501 100.41573366 -1159.38720703 87.484375 C-1157.32242305 85.27496166 -1155.31952584 83.01183086 -1153.3125 80.75 C-1151.87893025 79.16310729 -1150.44157385 77.57962512 -1149 76 C-1148.33097656 75.26394531 -1147.66195313 74.52789063 -1146.97265625 73.76953125 C-1132.98672284 59.05434991 -1113.32428461 45.55115641 -1092.5625 44.5625 C-1077.15609403 45.11351595 -1062.03002312 53.51968937 -1050.953125 63.82421875 C-1047.09431328 68.122935 -1045.22909299 71.93801752 -1044.76806641 77.70263672 C-1045.20056744 81.98667323 -1047.84961311 84.51084816 -1050.6875 87.5625 C-1051.90002888 88.95451615 -1053.10959282 90.34911967 -1054.31640625 91.74609375 C-1054.93402832 92.44976074 -1055.55165039 93.15342773 -1056.18798828 93.87841797 C-1059.00075062 97.1717223 -1061.56162924 100.63635628 -1064.125 104.125 C-1068.67968275 110.26450143 -1073.34243934 116.30338431 -1078.08203125 122.30078125 C-1081.43034629 126.53796803 -1084.74753808 130.79919591 -1088.0625 135.0625 C-1088.65957764 135.83029785 -1089.25665527 136.5980957 -1089.87182617 137.38916016 C-1093.3240306 141.83238494 -1096.76281443 146.28554203 -1100.1875 150.75 C-1103.96483487 155.66974834 -1107.7829314 160.5551051 -1111.62060547 165.42773438 C-1116.57354943 171.71991587 -1121.48672474 178.04279925 -1126.3984375 184.3671875 C-1128.75229878 187.39757725 -1131.11171527 190.42348908 -1133.4765625 193.4453125 C-1140.30858792 202.18417386 -1147.03404461 210.99395977 -1153.66894531 219.88354492 C-1157.13158463 224.5207818 -1160.63008714 229.12262782 -1164.1875 233.6875 C-1169.43702899 240.48861392 -1174.37167625 247.49592923 -1179.28271484 254.54394531 C-1181.13291521 257.19009483 -1182.99760135 259.82568191 -1184.86328125 262.4609375 C-1193.72933489 275.03009901 -1202.09177865 287.80803806 -1210 301 C-1210.44537109 301.73911621 -1210.89074219 302.47823242 -1211.34960938 303.23974609 C-1213.8586003 307.41222457 -1216.32551932 311.60653947 -1218.75097656 315.828125 C-1219.60766374 317.31778277 -1220.4692526 318.80462919 -1221.33496094 320.2890625 C-1237.13277204 347.46712787 -1254.65165041 382.69525792 -1246.375 414.9375 C-1243.69981673 423.81424449 -1240.26756239 430.29447936 -1232.125 435.02734375 C-1217.06318664 441.92144582 -1200.78464232 437.42311646 -1186 432 C-1179.1773509 429.32610383 -1172.56637022 426.24669762 -1166 423 C-1165.28956543 422.65098633 -1164.57913086 422.30197266 -1163.84716797 421.94238281 C-1142.82657213 411.49902947 -1123.17790794 398.46642463 -1104 385 C-1103.19159668 384.43394043 -1102.38319336 383.86788086 -1101.55029297 383.28466797 C-1091.25865814 376.05058506 -1081.3843328 368.41911921 -1071.69677734 360.39697266 C-1069.4252168 358.52677561 -1067.12054654 356.69988059 -1064.8125 354.875 C-1060.42704892 351.37988379 -1056.14883602 347.76717772 -1051.8815918 344.12963867 C-1048.50677662 341.25706638 -1045.08705613 338.45508722 -1041.625 335.6875 C-1037.30773342 332.16241521 -1033.18706541 328.47514131 -1029.1171875 324.66796875 C-1028.46745972 324.06056854 -1027.81773193 323.45316833 -1027.14831543 322.82736206 C-1020.45104211 316.53341664 -1013.92316083 310.07493775 -1007.43554688 303.56591797 C-1005.47641344 301.60134799 -1003.51188356 299.64228552 -1001.546875 297.68359375 C-995.99192826 292.13127305 -990.48055068 286.60094659 -985.39257812 280.61083984 C-983.22304499 278.10127118 -980.87350318 275.81765604 -978.5 273.5 C-974.11390442 269.16589878 -969.98394796 264.70462147 -966 260 C-965.11007468 258.96163952 -964.21938215 257.92393631 -963.328125 256.88671875 C-961.27226012 254.49409397 -959.22086759 252.09773047 -957.171875 249.69921875 C-955.13283501 247.31513925 -953.08128278 244.94307537 -951.015625 242.58203125 C-944.93229992 235.6038038 -939.1679995 228.45454689 -933.62719727 221.03588867 C-930.47386598 216.83330196 -927.16325086 212.84935231 -923.67602539 208.91992188 C-921.21099678 206.09618043 -918.91595775 203.1528226 -916.625 200.1875 C-912.62716252 195.05796698 -908.56841181 189.98832758 -904.4375 184.96484375 C-897.39446383 176.39807379 -890.38229871 167.80845322 -883.5625 159.0625 C-878.80686036 152.96568385 -873.90877029 146.99333837 -868.98071289 141.03540039 C-865.95747073 137.37962855 -862.95051844 133.71499967 -860 130 C-851.79847732 119.69101967 -843.3656523 109.56365548 -834.83056641 99.52978516 C-832.03474297 96.23857772 -829.28506617 92.91447663 -826.5625 89.5625 C-822.60427044 84.69791376 -818.53350939 79.93937822 -814.43945312 75.18945312 C-811.42768013 71.68783649 -808.46948309 68.15222407 -805.5625 64.5625 C-800.38780841 58.19940727 -795.03109066 52.00075596 -789.61669922 45.84130859 C-788.56548952 44.64405346 -787.51745482 43.44400055 -786.47314453 42.24072266 C-778.76909074 33.37939658 -771.64357174 25.80015842 -759.37109375 24.6640625 C-748.6029317 24.55712941 -738.1948429 25.20219365 -729.4375 32.25 C-723.20691071 38.37543167 -720.93162806 45.51627381 -720.6875 54.125 C-721.05851907 71.60927362 -734.90833206 85.89520654 -744.85400391 99.32885742 C-761.89793804 122.42603323 -777.62269843 146.76473201 -793 171 C-793.55429688 171.87188965 -794.10859375 172.7437793 -794.6796875 173.64208984 C-809.03375382 196.27053612 -822.39757505 219.35387108 -835 243 C-835.90614024 244.68755894 -836.81238506 246.37506173 -837.71875 248.0625 C-849.94706016 270.93422722 -860.11823545 294.27992028 -868 319 C-867.3709375 318.35933594 -866.741875 317.71867187 -866.09375 317.05859375 C-864.80984375 315.76115234 -864.80984375 315.76115234 -863.5 314.4375 C-862.6646875 313.59058594 -861.829375 312.74367188 -860.96875 311.87109375 C-858.88017188 309.80490094 -856.71135392 307.88094737 -854.47460938 305.97680664 C-849.73395168 301.84215371 -845.30649148 297.42096267 -840.87966919 292.95483398 C-839.40068091 291.46285757 -837.91839498 289.97422447 -836.43530273 288.48632812 C-833.28734751 285.32705235 -830.1433673 282.16383977 -827 279 C-823.35185217 275.32809211 -819.70200656 271.65790443 -816.04788208 267.99194336 C-814.60134931 266.53902092 -813.15790833 265.08307719 -811.71459961 263.62695312 C-807.19614875 259.09181701 -802.62688122 254.70991223 -797.76733398 250.54248047 C-795.13591317 248.24584879 -792.70449568 245.79819689 -790.25 243.3125 C-789.49638184 242.5532019 -789.49638184 242.5532019 -788.72753906 241.77856445 C-787.14917288 240.1881815 -785.57414991 238.59455555 -784 237 C-772.14366253 224.98996927 -772.14366253 224.98996927 -765.796875 219.57421875 C-762.71089096 216.87062838 -759.86860029 213.93029935 -757 211 C-752.75042689 206.70082317 -748.47208324 202.54459924 -743.85546875 198.63671875 C-740.91245346 196.04066948 -738.20026379 193.22181037 -735.46875 190.40625 C-732.77827831 187.78389151 -729.96902677 185.3401503 -727.13232422 182.87841797 C-723.6108494 179.77626234 -720.21651615 176.54233693 -716.8125 173.3125 C-715.32074238 171.90319066 -713.82855042 170.49434095 -712.3359375 169.0859375 C-711.23910645 168.05098145 -711.23910645 168.05098145 -710.12011719 166.99511719 C-703.21030293 160.49269871 -696.25781509 154.04097264 -689.08203125 147.83203125 C-686.39483276 145.46749824 -683.75957561 143.04773591 -681.125 140.625 C-668.08255041 128.63966246 -654.73708757 117.02722388 -641.27050781 105.52246094 C-638.25899154 102.94720025 -635.26063854 100.3584899 -632.28125 97.74609375 C-625.1794934 91.52562397 -617.97654402 85.51426766 -610.51171875 79.734375 C-607.5249757 77.42087662 -604.58434391 75.05524291 -601.65063477 72.67504883 C-520.26531263 6.81228249 -520.26531263 6.81228249 -472 10 C-462.08727917 11.06911086 -451.71905409 13.81096672 -444.5625 21.125 C-438.22543923 29.4906383 -437.91027121 40.9467177 -439 51 C-440.56813004 57.06207846 -443.63808467 61.81824812 -447.3125 66.8125 C-447.83666504 67.53896729 -448.36083008 68.26543457 -448.90087891 69.01391602 C-450.59113026 71.34964922 -452.29498744 73.6750266 -454 76 C-455.1370084 77.56489376 -456.27372654 79.12999845 -457.41015625 80.6953125 C-463.82136506 89.48985007 -470.38770292 98.15042476 -477.09887695 106.71801758 C-480.30860602 110.81593935 -483.46741624 114.93985937 -486.5625 119.125 C-490.58080446 124.52249987 -494.80452841 129.73376637 -499.06494141 134.94018555 C-502.57532881 139.23309469 -506.03045979 143.56224263 -509.4375 147.9375 C-513.55643402 153.22178355 -517.78701192 158.40424905 -522.0625 163.5625 C-527.36599785 169.9712192 -532.5262871 176.45358326 -537.54785156 183.08691406 C-539.25160163 185.33146442 -540.96547644 187.56811655 -542.6796875 189.8046875 C-575.91968691 233.21507407 -609.86643422 278.4235577 -627 331 C-627.33209473 332.00836914 -627.66418945 333.01673828 -628.00634766 334.05566406 C-629.00338661 337.11453152 -629.97767569 340.17926319 -630.9375 343.25 C-631.36216553 344.60665771 -631.36216553 344.60665771 -631.79541016 345.99072266 C-635.00589655 356.69957924 -636.3726474 367.14338853 -636.3125 378.3125 C-636.30512817 379.94119019 -636.30512817 379.94119019 -636.29760742 381.6027832 C-636.27484541 396.42930512 -636.27484541 396.42930512 -630.6875 409.8125 C-625.65113027 413.91187071 -621.33928966 414.23184445 -615 414 C-575.0424833 406.6140526 -537.83875526 374.72707003 -509.00390625 347.78515625 C-506.63105822 345.57212586 -504.21419982 343.42397141 -501.75 341.3125 C-498.13382566 338.19013098 -494.79448979 334.83432024 -491.46875 331.40625 C-489.53471508 329.52117799 -487.58645872 327.77680211 -485.53515625 326.02734375 C-479.99212368 321.21545927 -474.85069382 316.00013165 -469.67260742 310.80297852 C-467.941053 309.066064 -466.20421641 307.33456111 -464.46679688 305.60351562 C-459.28781571 300.42731732 -454.20192961 295.24049874 -449.44750977 289.66577148 C-447.25430222 287.14186271 -444.89245792 284.83616479 -442.5 282.5 C-438.86226429 278.91078381 -435.39130016 275.24670527 -432.07421875 271.359375 C-429.12364734 268.00316948 -426.05774938 264.75842039 -423 261.5 C-413.0052807 250.81603464 -404.21137665 239.9032904 -396.125 227.6875 C-385.55170661 211.71619815 -374.05126903 196.62335371 -361.6015625 182.0703125 C-359.25742299 179.32265955 -357.00116684 176.51199772 -354.75 173.6875 C-349.11968123 166.76794902 -342.92895313 160.37642258 -336.79443359 153.90771484 C-335.2368116 152.25176134 -333.69938471 150.58171346 -332.17578125 148.89453125 C-325.41536103 141.42352671 -318.36470107 134.256693 -311.25 127.125 C-310.50592896 126.37704666 -310.50592896 126.37704666 -309.74682617 125.61398315 C-304.52495377 120.37061579 -299.25825737 115.23411138 -293.63574219 110.41748047 C-291.65715259 108.70289969 -289.81808286 106.88301439 -288 105 C-284.8288397 101.78565269 -281.54417247 98.78249037 -278.12109375 95.83984375 C-275.77508942 93.80491181 -273.4826355 91.71709033 -271.1875 89.625 C-266.8421994 85.70427839 -262.3725592 81.97417735 -257.8203125 78.296875 C-255.01071388 76.00872543 -252.25755381 73.66294977 -249.5 71.3125 C-206.49804812 35.45906847 -154.96941608 2.99781324 -100 -10 C-99.2280127 -10.18401367 -98.45602539 -10.36802734 -97.66064453 -10.55761719 C-66.65683989 -17.76604894 -26.01339646 -22.58397763 0 0 Z M-98 53 C-99.1859375 53.5465625 -100.371875 54.093125 -101.59375 54.65625 C-130.19845338 68.18262303 -156.10176417 86.67511683 -181 106 C-181.76836182 106.59304932 -182.53672363 107.18609863 -183.32836914 107.79711914 C-188.34902017 111.68089711 -193.29374037 115.64518157 -198.1875 119.6875 C-198.91654541 120.28908936 -199.64559082 120.89067871 -200.39672852 121.51049805 C-209.93939612 129.40648185 -219.36607267 137.42800438 -228.5234375 145.76953125 C-230.59566604 147.63584434 -232.68818273 149.47155789 -234.79296875 151.30078125 C-238.92249384 154.90761213 -242.94375555 158.61893205 -246.9375 162.375 C-247.98454102 163.35726562 -247.98454102 163.35726562 -249.05273438 164.359375 C-253.47400817 168.52154158 -257.79721983 172.76378105 -262.05859375 177.08984375 C-264.61348015 179.60360522 -267.31633522 181.91996922 -270.03125 184.2578125 C-275.48124276 189.08062356 -280.36218327 194.36232958 -285.09375 199.87890625 C-287.2630452 202.29269169 -289.55358787 204.54482426 -291.875 206.8125 C-296.16189967 211.04759423 -299.96046695 215.51037324 -303.71875 220.21484375 C-306.05706682 223.06967233 -308.49914718 225.78688343 -311 228.5 C-327.80787257 246.81228092 -343.5875918 267.41925436 -355.89208984 289.05761719 C-357.06449938 291.11308 -358.2607138 293.15368452 -359.45703125 295.1953125 C-373.33031999 319.17307781 -383.39214661 344.49625149 -383.3125 372.5 C-383.32861328 373.63308594 -383.34472656 374.76617188 -383.36132812 375.93359375 C-383.36900001 389.32871033 -380.42191226 403.38447264 -370.75390625 413.3046875 C-361.54183682 420.79240666 -351.4027243 421.11925868 -340 420 C-317.35805957 416.20199709 -294.99030376 405.00150338 -277 391 C-275.31740117 389.80160598 -273.62159829 388.62333854 -271.92553711 387.4440918 C-264.8151677 382.48177704 -258.18126128 377.10918686 -251.64306641 371.42089844 C-249.98582747 369.98774382 -248.31393895 368.57375955 -246.63671875 367.1640625 C-230.41212131 353.48957263 -214.22169105 338.93520962 -200.49609375 322.7109375 C-198.94882394 320.9414749 -197.31524692 319.32025552 -195.625 317.6875 C-191.88352747 314.01269068 -188.67114833 309.97246278 -185.38671875 305.890625 C-183.00629518 303.00762428 -180.53320218 300.24921167 -178 297.5 C-173.96045182 293.10621452 -170.15320381 288.58161176 -166.40625 283.9375 C-164.19576593 281.23898698 -161.93963588 278.59201488 -159.65625 275.95556641 C-143.18685154 256.93908304 -128.68270413 236.40207762 -114 216 C-106.79936792 205.99449602 -99.55749214 196.02311522 -92.23291016 186.10791016 C-86.09080366 177.78497251 -80.04209317 169.39567785 -74 161 C-66.79936792 150.99449602 -59.55749214 141.02311522 -52.23291016 131.10791016 C-46.09080366 122.78497251 -40.04209317 114.39567785 -34 106 C-27.92147647 97.55370102 -21.8369016 89.11296392 -15.66186523 80.73681641 C-14.48057168 79.13410498 -13.30165413 77.52963929 -12.12524414 75.92333984 C-9.33995591 72.12797607 -6.52287591 68.37164373 -3.6015625 64.6796875 C-3.0770752 64.00381592 -2.55258789 63.32794434 -2.01220703 62.6315918 C-1.03269179 61.37232801 -0.03708849 60.12534945 0.97705078 58.89379883 C2.48174807 57.03350407 2.48174807 57.03350407 4 54 C3.09379789 49.07550694 0.78571252 45.26627755 -3 42 C-31.41906075 24.51505246 -70.62611954 40.08455745 -98 53 Z " fill="#FBFBFE" transform="translate(2538,556)"/>
<path d="M0 0 C1.17256348 0.14985352 2.34512695 0.29970703 3.55322266 0.45410156 C18.87312035 2.4688082 33.97487706 5.40938656 49 9 C49.8254834 9.19706543 50.6509668 9.39413086 51.50146484 9.59716797 C94.67507415 20.07433604 142.67946372 38.91011306 171 75 C172.15242188 76.4540625 172.15242188 76.4540625 173.328125 77.9375 C180.44651376 87.2344802 185.38840365 97.27302589 190 108 C190.4434375 109.0209375 190.886875 110.041875 191.34375 111.09375 C192.38283878 113.70721571 193.23254508 116.29452762 194 119 C194.29648438 120.04414063 194.59296875 121.08828125 194.8984375 122.1640625 C199.71476852 142.79916882 198.3893426 165.62169747 193 186 C192.54947266 187.71123047 192.54947266 187.71123047 192.08984375 189.45703125 C186.76465712 207.04628407 176.4710254 220.87457297 164 234 C163.15888672 234.95519531 163.15888672 234.95519531 162.30078125 235.9296875 C133.49911438 267.52836664 75.78301411 282.57411071 35 285 C21.30247575 285.53596166 4.75320347 285.32167445 -6.29296875 276.08203125 C-8.43808838 273.46567253 -8.70636455 271.31318934 -8.48828125 267.9609375 C-7.80361011 265.21129818 -6.42716994 263.61313613 -4.1184082 262.0144043 C5.3639288 257.47376695 16.69904611 257.33782578 27.02212524 256.66360474 C31.23944082 256.38515127 35.45366924 256.06659794 39.66796875 255.74609375 C40.48802902 255.68389145 41.30808929 255.62168915 42.15299988 255.55760193 C51.51435517 254.83034908 60.76280197 253.68697158 70 252 C70.74926758 251.87044922 71.49853516 251.74089844 72.27050781 251.60742188 C91.78997718 248.12870456 109.98330445 236.93403242 122 221 C136.77463813 199.78045799 141.52004463 177.41541891 137.68359375 151.77734375 C131.92947238 119.9817131 116.03653921 94.11324789 89.9375 75.25 C88.30248219 74.15041134 86.6564242 73.06706951 85 72 C84.13632813 71.43925781 83.27265625 70.87851563 82.3828125 70.30078125 C60.91942858 57.07196429 35.54503298 49.84413362 11 45 C10.09008301 44.81840332 9.18016602 44.63680664 8.24267578 44.44970703 C-3.96294462 42.07226819 -16.23138747 40.52145309 -28.61328125 39.40625 C-29.34179354 39.34063244 -30.07030582 39.27501488 -30.82089424 39.20740891 C-47.11423065 37.77533302 -63.34802761 37.52268893 -79.6953125 37.61347961 C-81.98413396 37.62523961 -84.27292275 37.6317233 -86.56176758 37.63708496 C-108.50632994 37.69713555 -130.20657934 38.23371709 -152 41 C-154.48812822 41.2826006 -156.97641165 41.56383784 -159.46484375 41.84375 C-187.86494231 45.1935432 -215.96047041 51.07758511 -243.65185547 58.14697266 C-245.83894427 58.7041907 -248.02801787 59.25369105 -250.21923828 59.79443359 C-320.03281657 77.02396296 -385.2629168 109.06459398 -437.9375 158.25 C-438.98454102 159.2241687 -438.98454102 159.2241687 -440.05273438 160.21801758 C-444.67279645 164.57839495 -448.87409569 169.17426793 -453 174 C-454.05612246 175.19229779 -455.11465911 176.38246215 -456.17578125 177.5703125 C-473.76732727 197.42852535 -489.31540747 220.00063007 -496 246 C-496.33837891 247.28003906 -496.33837891 247.28003906 -496.68359375 248.5859375 C-501.25006762 269.05633759 -496.90810586 288.66088138 -486.08251953 306.32910156 C-483.11482388 310.90982078 -479.68020037 314.98249812 -476 319 C-475.20207031 319.89074219 -474.40414063 320.78148437 -473.58203125 321.69921875 C-446.13354111 350.80873703 -404.4060153 364.373584 -366.53662109 373.30517578 C-365.71517192 373.49966128 -364.89372274 373.69414677 -364.04738116 373.89452577 C-346.47006926 378.03764805 -328.7858904 381.41598854 -311.01523256 384.60817099 C-306.72547731 385.38172309 -302.43822262 386.16890587 -298.15072632 386.9548645 C-285.49583201 389.27220375 -272.83697786 391.56763709 -260.17797852 393.86242676 C-183.62996312 407.74139924 -183.62996312 407.74139924 -156.0703125 414.1015625 C-155.13969624 414.31571682 -154.20907997 414.52987114 -153.25026321 414.75051498 C-107.75219695 425.30991305 -55.6471627 440.73825275 -20 472 C-19.17371094 472.69480469 -18.34742188 473.38960937 -17.49609375 474.10546875 C5.27574349 493.74835126 17.82148572 521.68259136 20.1890564 551.3706665 C20.50053851 556.9963507 20.52932101 562.61714682 20.5 568.25 C20.49923462 569.10874725 20.49846924 569.96749451 20.49768066 570.8522644 C20.44521173 587.32009549 18.59655157 602.91156826 15 619 C14.81888672 619.81694336 14.63777344 620.63388672 14.45117188 621.47558594 C13.47986116 625.71316702 12.30902328 629.85560198 11 634 C10.65582031 635.16015625 10.31164063 636.3203125 9.95703125 637.515625 C-4.43276897 683.68085437 -34.29972394 722.24082628 -67.90161133 756.07684326 C-68.99266094 757.17595185 -70.08222756 758.27653493 -71.17016602 759.37872314 C-78.12040704 766.41022374 -85.24014959 772.85869827 -93 779 C-94.73197482 780.43411534 -96.46146343 781.87124313 -98.1875 783.3125 C-169.67070628 841.52456249 -259.79188243 875.22883031 -537.37890625 916.203125 C-538.36818556 916.20595238 -539.35746487 916.20877975 -540.37672234 916.21169281 C-545.631766 916.22656517 -550.88678315 916.23586493 -556.1418457 916.24023438 C-560.38119302 916.24457822 -564.62033214 916.25832736 -568.85961914 916.28125 C-595.45426785 916.42227934 -621.78999822 915.78651636 -648.29192162 913.45096588 C-651.87335073 913.14025569 -655.40462126 912.9273954 -659 913 C-627.54548155 928.68936222 -593.85534547 939.74219751 -559.84643555 948.45166016 C-558.72277588 948.7460498 -557.59911621 949.04043945 -556.44140625 949.34375 C-555.45857666 949.59318359 -554.47574707 949.84261719 -553.46313477 950.09960938 C-550.85343075 951.0535779 -549.63509762 951.77059384 -548 954 C-547.46803847 957.24496535 -547.19909493 958.92986389 -548 962 C-551.22533631 966.46660211 -555.19796627 968.4062369 -560.52783203 969.61181641 C-606.49751246 976.8300459 -649.7626811 952.2505086 -686 927 C-686.72074707 926.50193848 -687.44149414 926.00387695 -688.18408203 925.49072266 C-693.4819592 921.82357544 -698.69880745 918.07713796 -703.70703125 914.01953125 C-704.33077637 913.51655518 -704.95452148 913.0135791 -705.59716797 912.49536133 C-706.78094654 911.53348235 -707.95654144 910.56139569 -709.12158203 909.5769043 C-714.90900216 904.84972841 -721.26573724 903.86540264 -728.46875 902.5546875 C-729.92599031 902.28470518 -731.38309752 902.0140037 -732.84008789 901.74267578 C-733.59919464 901.60186584 -734.35830139 901.46105591 -735.14041138 901.315979 C-793.69237082 890.37331531 -854.45884319 872.1688171 -897.4375 828.875 C-897.94301392 828.36799561 -898.44852783 827.86099121 -898.96936035 827.33862305 C-906.61667668 819.65078072 -913.6583181 811.80374663 -920 803 C-920.88607574 801.83866111 -921.77551558 800.67988273 -922.66796875 799.5234375 C-929.76915153 790.22974099 -935.79342415 780.39357012 -941.66455078 770.28759766 C-942.81965085 768.30893447 -943.99468408 766.34515286 -945.18359375 764.38671875 C-959.66943562 740.04933854 -969.74685179 712.78344795 -975 685 C-975.23332031 683.76894531 -975.46664062 682.53789063 -975.70703125 681.26953125 C-977.06857828 673.22758801 -977.63071302 665.14232755 -978 657 C-978.04253906 656.1234375 -978.08507812 655.246875 -978.12890625 654.34375 C-979.12562039 612.3488608 -961.28538291 574.91361347 -932.7734375 544.80859375 C-912.44165274 524.21908214 -887.4080006 511.07481063 -857.9375 510.6875 C-844.9637443 510.75083936 -833.99151971 514.0981318 -824.4375 523 C-804.98055491 543.50958959 -801.8644902 573.28445961 -798.51171875 600.0546875 C-798.20283041 602.44896473 -797.89280962 604.84309608 -797.58174133 607.23709106 C-796.76811823 613.51757978 -795.96701846 619.79959458 -795.16955566 626.08215332 C-791.38821731 655.83398013 -787.58222089 685.58428019 -783.33799171 715.27417374 C-783.00773378 717.58886144 -782.68033117 719.90395884 -782.35617638 722.21950912 C-779.74546876 740.81135781 -776.80427957 759.6565953 -770.375 777.375 C-770.04218018 778.30795898 -769.70936035 779.24091797 -769.36645508 780.20214844 C-757.62528493 812.25605029 -740.12053662 840.15271056 -718 866 C-717.52852539 866.56428711 -717.05705078 867.12857422 -716.57128906 867.70996094 C-710.60239764 874.76333511 -705.50369622 878.51797681 -696.17285156 879.70654297 C-693.59984037 880.05404403 -691.05002794 880.49579397 -688.4921875 880.94140625 C-654.10165877 886.84501744 -619.68953425 889.40763337 -584.82574081 889.31805801 C-582.58529336 889.31239972 -580.34485352 889.30959043 -578.10440063 889.30697632 C-556.04417418 889.26960009 -534.13535137 888.81537443 -512.20233154 886.25646973 C-509.87536219 885.98548546 -507.54740785 885.72432652 -505.21923828 885.46386719 C-427.27289136 876.64927786 -350.21959484 857.12276214 -227 793 C-226.28682617 792.53239258 -225.57365234 792.06478516 -224.83886719 791.58300781 C-220.27240394 788.58026626 -215.7293411 785.54428858 -211.20068359 782.48486328 C-209.08191824 781.05527255 -206.95723334 779.63483993 -204.83203125 778.21484375 C-196.07792056 772.32529255 -187.78487008 766.01406306 -179.62646484 759.32666016 C-177.41744753 757.52482886 -175.17659028 755.76424242 -172.9375 754 C-164.49873729 747.24052284 -156.04975583 740.34689963 -148.546875 732.546875 C-146.89958802 730.89958802 -145.16320514 729.43013404 -143.375 727.9375 C-133.5302594 719.43087948 -125.03715368 709.18211753 -117 699 C-115.91940877 697.66134697 -114.83866801 696.32281465 -113.7578125 694.984375 C-94.23634264 670.59538964 -79.80263641 644.59442119 -73 614 C-72.73630615 612.83343872 -72.73630615 612.83343872 -72.46728516 611.64331055 C-70.14127622 598.48568317 -70.23280719 582.21488035 -76 570 C-76.50917969 568.90945313 -77.01835938 567.81890625 -77.54296875 566.6953125 C-82.26370499 557.34026082 -88.3058978 549.13111911 -96 542 C-96.87978516 541.14728516 -96.87978516 541.14728516 -97.77734375 540.27734375 C-117.27941193 522.01004339 -143.23981559 511.05317478 -168 502 C-169.01137024 501.62919312 -170.02274048 501.25838623 -171.0647583 500.87634277 C-182.55831424 496.85481602 -194.29869163 494.23558462 -206.171875 491.58984375 C-208.48306136 491.06879781 -210.79408705 490.54703881 -213.10496521 490.02462769 C-218.05968939 488.90595511 -223.01542815 487.79193742 -227.97201538 486.68154907 C-235.17458816 485.06773001 -242.37496987 483.44434281 -249.57467544 481.8177861 C-261.33539825 479.16083393 -273.09723769 476.5088662 -284.85986328 473.86035156 C-308.93180693 468.43981666 -333.00240701 463.01341623 -357.06637001 457.55754566 C-363.74486549 456.04360786 -370.42404134 454.5328215 -377.10510254 453.03024292 C-446.66545893 437.38096823 -446.66545893 437.38096823 -469 428 C-469.69673828 427.71189453 -470.39347656 427.42378906 -471.11132812 427.12695312 C-504.8333438 413.07363734 -539.90425275 390.30561987 -560 359 C-560.66128906 358.02160156 -561.32257813 357.04320312 -562.00390625 356.03515625 C-580.39786642 327.79850771 -584.57175031 293.7228299 -578.0703125 261.06640625 C-571.01899878 228.9589372 -552.77042267 199.57341714 -530.51953125 175.73046875 C-528.55202787 173.59824415 -526.64955807 171.44011469 -524.7578125 169.2421875 C-520.71957831 164.61033561 -516.41724702 160.27019767 -512.0625 155.9375 C-510.92264648 154.7918457 -510.92264648 154.7918457 -509.75976562 153.62304688 C-505.00345238 148.87485714 -500.11308846 144.36014986 -495 140 C-494.19115356 139.30064331 -494.19115356 139.30064331 -493.3659668 138.5871582 C-485.96483116 132.19200216 -478.37884033 126.11281476 -470.58105469 120.21191406 C-469.07188041 119.05509795 -467.58602044 117.8680541 -466.1015625 116.6796875 C-431.91427803 89.49137465 -391.40185862 69.20751839 -351 53 C-349.82985352 52.52498047 -348.65970703 52.04996094 -347.45410156 51.56054688 C-280.40143861 24.43932589 -209.75197574 8.21225563 -138 0 C-137.2766748 -0.08463501 -136.55334961 -0.16927002 -135.80810547 -0.25646973 C-91.51942099 -5.40661104 -44.22426857 -5.80654519 0 0 Z M-906.8125 559.875 C-923.12540094 575.20099946 -925.47587415 599.24055502 -926.24609375 620.5078125 C-926.65098091 640.68988039 -925.06542394 661.21898203 -921 681 C-920.85836426 681.69319336 -920.71672852 682.38638672 -920.57080078 683.10058594 C-912.46653021 721.80407479 -894.9250458 757.38729613 -870 788 C-869.56284668 788.54011719 -869.12569336 789.08023438 -868.67529297 789.63671875 C-847.04033714 816.16446738 -821.10957382 836.6338093 -790 851 C-788.8874585 851.51820313 -788.8874585 851.51820313 -787.75244141 852.046875 C-778.659945 856.26014511 -769.61770608 860.13354642 -760 863 C-761.61835999 859.18139778 -764.16901081 856.32825167 -766.875 853.25 C-782.27325856 835.34338151 -794.90077036 815.80866761 -806 795 C-806.34095703 794.37399902 -806.68191406 793.74799805 -807.03320312 793.10302734 C-836.59729753 738.63279973 -847.6875364 673.78615806 -857.57644653 613.2935791 C-861.49395666 577.28207746 -861.49395666 577.28207746 -877 546 C-886.02179651 541.8388533 -900.40027831 554.47410187 -906.8125 559.875 Z " fill="#FBFBFE" transform="translate(1201,167)"/>
<path d="M0 0 C8.36579897 7.58758512 13.22827371 16.33644446 13.89453125 27.87890625 C13.46184118 33.22630235 11.11996174 37.73728085 8.6875 42.4375 C8.3260791 43.14132812 7.9646582 43.84515625 7.59228516 44.5703125 C-1.16435237 61.41961096 -11.12801897 77.82327634 -22.53125 93.01953125 C-24.51077652 95.70665169 -26.35138457 98.46303908 -28.1875 101.25 C-32.27877517 107.43855021 -36.56529025 113.47343182 -40.90576172 119.48779297 C-42.38893069 121.54343118 -43.86839316 123.60170585 -45.34765625 125.66015625 C-56.47544343 141.12719889 -67.76319846 156.46098526 -79.34423828 171.59204102 C-83.79182801 177.41262913 -88.17005969 183.27896086 -92.5 189.1875 C-98.50652516 197.38146089 -104.63688974 205.47269954 -110.83691406 213.52099609 C-112.2143774 215.3100575 -113.58838885 217.10169802 -114.9609375 218.89453125 C-121.01306527 226.79379059 -127.15326199 234.62168451 -133.3125 242.4375 C-144.62688191 256.80253147 -155.87995642 271.21568818 -167.00244141 285.72998047 C-168.4405787 287.60443672 -169.88242787 289.47600902 -171.32421875 291.34765625 C-178.85887344 301.14500801 -186.23092407 311.05325253 -193.53759766 321.02148438 C-195.31477129 323.4405917 -197.09945438 325.85396535 -198.88671875 328.265625 C-205.98266392 337.84597846 -212.95748682 347.49832626 -219.78955078 357.26855469 C-221.32792803 359.45947221 -222.8793532 361.64062595 -224.43359375 363.8203125 C-235.08977981 378.82085787 -245.16551803 394.20201251 -255.15637207 409.6505127 C-256.20106331 411.26525613 -257.24832789 412.87833398 -258.29589844 414.49121094 C-273.26832661 437.45146689 -273.26832661 437.45146689 -284.3125 462.4375 C-276.71171874 457.02408184 -269.12608584 451.59029011 -261.5625 446.125 C-260.80670654 445.5789209 -260.05091309 445.0328418 -259.2722168 444.47021484 C-255.43376854 441.6959109 -251.59695153 438.91937217 -247.76171875 436.140625 C-239.77699783 430.35921066 -231.76455074 424.62223471 -223.70019531 418.95239258 C-218.6032215 415.36347914 -213.5456664 411.72310313 -208.5 408.0625 C-200.45668887 402.23151511 -192.3310596 396.52404883 -184.18359375 390.83984375 C-179.71492861 387.72206813 -175.26106373 384.58386592 -170.8125 381.4375 C-162.20952942 375.35715186 -153.5829507 369.31097899 -144.94580078 363.27929688 C-142.32414649 361.44564585 -139.70678032 359.60600086 -137.08984375 357.765625 C-122.43388195 347.48427994 -107.56299781 337.54311439 -92.64562988 327.64701843 C-87.80873344 324.43659203 -82.98336961 321.20941563 -78.1640625 317.97265625 C-65.05384703 309.17266797 -51.95564285 300.39981775 -38.3125 292.4375 C-37.51150879 291.96973145 -36.71051758 291.50196289 -35.88525391 291.02001953 C-29.72506532 287.43747344 -23.52933043 283.92070446 -17.3125 280.4375 C-16.39887695 279.92509766 -15.48525391 279.41269531 -14.54394531 278.88476562 C51.71486308 241.86529819 51.71486308 241.86529819 85.8125 251 C94.02437243 253.94758645 99.15759102 258.91345187 103.6796875 266.25 C107.53668029 274.62176729 108.47838505 284.5943581 105.765625 293.4453125 C104.26918966 296.60543183 102.56357895 299.48533048 100.6875 302.4375 C100.29014648 303.07461914 99.89279297 303.71173828 99.48339844 304.36816406 C92.52437842 315.45568134 84.69474475 325.8442818 76.70703125 336.203125 C72.90859893 341.13170705 69.18600665 346.11192756 65.5 351.125 C64.93071777 351.8991626 64.36143555 352.6733252 63.77490234 353.47094727 C59.79716837 358.89528498 55.86420371 364.3511693 51.9375 369.8125 C47.51346979 375.96503755 42.98046847 382.00313672 38.33203125 387.98828125 C33.26526959 394.55385447 28.40722452 401.279437 23.50195312 407.96582031 C21.14845345 411.17179861 18.78924001 414.37354214 16.42919922 417.57470703 C15.2635816 419.15598645 14.09854681 420.73769565 12.93408203 422.31982422 C10.05137606 426.23590767 7.16215492 430.14680538 4.2578125 434.046875 C-10.07351032 453.32291133 -23.63973566 473.0307143 -36.3125 493.4375 C-36.9314917 494.42459961 -36.9314917 494.42459961 -37.56298828 495.43164062 C-58.83617418 529.41718901 -86.09516486 575.66632116 -78.734375 617.7421875 C-78.07961756 620.08956257 -77.3229199 622.22397547 -76.3125 624.4375 C-75.9 625.38625 -75.4875 626.335 -75.0625 627.3125 C-71.70017318 631.39532543 -67.50158491 633.4633893 -62.375 634.375 C-49.85941149 635.22495508 -37.47268902 630.57694815 -26.3125 625.4375 C-25.65749512 625.13682617 -25.00249023 624.83615234 -24.32763672 624.52636719 C4.14126042 611.26612634 30.27779347 590.57526783 53.375 569.53515625 C55.35134372 567.74242554 57.3520673 565.98954773 59.375 564.25 C71.21996566 553.8975719 82.43084715 542.85747007 93.53369141 531.72167969 C95.71011269 529.53983092 97.89192239 527.36347087 100.07421875 525.1875 C101.48730037 523.77375848 102.90007223 522.35970726 104.3125 520.9453125 C104.9511499 520.30868683 105.5897998 519.67206116 106.24780273 519.0161438 C110.01874475 515.22577098 113.60748683 511.32436848 117.09509277 507.27145386 C119.71465208 504.25454285 122.45496848 501.35176073 125.1875 498.4375 C130.72915458 492.49379921 136.12023291 486.45469372 141.38671875 480.265625 C166.9328778 450.27520828 166.9328778 450.27520828 176.6875 447.4375 C180.5 447.5 180.5 447.5 183.6875 448.4375 C186.07514765 452.02672358 185.87773661 454.70242059 185.27734375 458.82421875 C182.181596 472.53981641 173.35625504 482.80689111 164.0234375 492.890625 C162.10842509 494.97856496 160.2402872 497.09186697 158.3828125 499.23046875 C154.74019303 503.40615449 150.98421196 507.46452574 147.1875 511.5 C146.56230469 512.16837891 145.93710938 512.83675781 145.29296875 513.52539062 C142.29756526 516.71614651 139.27480581 519.86289524 136.15625 522.93359375 C133.82209382 525.24730051 131.63072673 527.62257724 129.49609375 530.12109375 C125.02880862 535.2936741 120.18439878 540.09033301 115.3449707 544.91040039 C113.75291034 546.49709946 112.1662701 548.08907742 110.58007812 549.68164062 C105.65569727 554.60890455 100.68632444 559.42522475 95.38842773 563.95483398 C92.85522547 566.16297771 90.53546541 568.53295711 88.1875 570.9375 C84.55525706 574.61899581 80.84716834 578.13757744 76.9140625 581.49609375 C73.94797252 584.08231607 71.07112367 586.76002509 68.1875 589.4375 C64.07848949 593.24808749 59.94067428 597.00839559 55.69921875 600.671875 C53.22137293 602.8466057 50.80171125 605.08088402 48.375 607.3125 C42.97258543 612.2332178 37.38581141 616.86542553 31.6875 621.4375 C30.56729484 622.34975289 29.44752295 623.26253803 28.328125 624.17578125 C8.59446734 640.20836798 -12.02646247 655.74735715 -34.5625 667.625 C-35.40731934 668.07061279 -36.25213867 668.51622559 -37.12255859 668.9753418 C-55.50462048 678.37106462 -74.3764353 678.05101608 -93.99609375 672.37109375 C-113.23435907 665.37326135 -125.84114268 653.81853427 -134.77734375 635.421875 C-152.16580863 594.19694305 -142.46044556 546.27305687 -126.3125 506.4375 C-115.06020674 479.22059455 -101.28049805 453.5334583 -86.07373047 428.36523438 C-84.12230319 425.12133142 -82.20728634 421.85787832 -80.30297852 418.58618164 C-71.27895838 403.08356965 -61.64006518 387.94752324 -52.11938477 372.74755859 C-47.39183565 365.19050983 -42.72119808 357.5996361 -38.0625 350 C-31.9588624 340.04766131 -25.72564274 330.19308577 -19.3125 320.4375 C-22.92657496 321.13644339 -25.81813674 322.63108472 -29.0546875 324.359375 C-30.19220459 324.96604004 -31.32972168 325.57270508 -32.50170898 326.19775391 C-33.73060119 326.86045548 -34.95919122 327.52371768 -36.1875 328.1875 C-36.81198029 328.52352234 -37.43646057 328.85954468 -38.0798645 329.20574951 C-50.0159584 335.6344153 -61.725528 342.39803264 -73.3125 349.4375 C-74.58818848 350.20562012 -74.58818848 350.20562012 -75.88964844 350.98925781 C-96.37844737 363.33856427 -116.04723233 376.8969702 -135.3515625 391.01464844 C-137.22324146 392.37273422 -139.10738371 393.71035613 -141 395.0390625 C-148.41761385 400.24828531 -155.54807671 405.7266421 -162.58984375 411.43359375 C-165.57675723 413.85409071 -168.59670699 416.2273328 -171.63354492 418.5847168 C-177.65451461 423.26187831 -183.50186388 428.09973472 -189.26489258 433.09106445 C-192.8159414 436.16536832 -196.40980729 439.17099394 -200.0625 442.125 C-209.14965704 449.51659421 -217.66671816 457.56610156 -226.24804688 465.53271484 C-227.83662087 466.99842609 -229.43322132 468.4554416 -231.03320312 469.90869141 C-239.59401976 477.7065741 -247.83229892 485.8029473 -256.0078125 494.00244141 C-258.20198502 496.20202072 -260.40151723 498.39614007 -262.6015625 500.58984375 C-264.02375856 502.0127 -265.44564471 503.43586609 -266.8671875 504.859375 C-267.51211151 505.50227478 -268.15703552 506.14517456 -268.82150269 506.80755615 C-272.63191492 510.63739755 -276.24910605 514.58485047 -279.78118896 518.67260742 C-281.49495272 520.64778351 -283.26447466 522.55786218 -285.07421875 524.4453125 C-285.71198242 525.11457764 -286.34974609 525.78384277 -287.00683594 526.47338867 C-287.66458008 527.16279541 -288.32232422 527.85220215 -289 528.5625 C-295.51615076 535.44057553 -301.77220337 542.48072473 -307.86816406 549.73144531 C-309.35423548 551.4867981 -310.85776909 553.22563276 -312.3671875 554.9609375 C-327.54257331 572.42503843 -340.84715515 591.25347063 -353.8515625 610.3671875 C-360.26057745 619.77775158 -366.78634577 629.10797147 -373.3125 638.4375 C-373.78252441 639.11119629 -374.25254883 639.78489258 -374.73681641 640.47900391 C-377.5475246 644.50041122 -380.40977334 648.48195029 -383.3125 652.4375 C-383.89467285 653.23397949 -384.4768457 654.03045898 -385.07666016 654.85107422 C-407.58600223 685.49523255 -407.58600223 685.49523255 -416.3125 688.4375 C-427.60015494 689.58413513 -441.12125789 688.66234116 -450.62890625 681.89453125 C-456.34628678 676.946543 -459.00382377 673.20335005 -459.625 665.625 C-458.8494124 631.33294804 -428.8751937 593.89359821 -412.41430664 565.1262207 C-412.0783548 564.53910309 -411.74240295 563.95198547 -411.39627075 563.34707642 C-410.71561907 562.1577004 -410.03485334 560.96838964 -409.35397339 559.77914429 C-403.95305466 550.34389387 -398.61955737 540.87229255 -393.32055664 531.37939453 C-389.21033033 524.02215394 -385.04382893 516.69908028 -380.85058594 509.38891602 C-376.96027472 502.59631934 -373.12966713 495.77142692 -369.3125 488.9375 C-363.58684224 478.69039646 -357.79224675 468.48543592 -351.95214844 458.30322266 C-350.15221226 455.15735445 -348.36077533 452.00673789 -346.5703125 448.85546875 C-339.25030091 435.98089685 -331.82809069 423.17876311 -324.24975586 410.45385742 C-319.64489719 402.71324746 -315.11332731 394.93370562 -310.625 387.125 C-298.49670894 366.04079525 -285.99238727 345.19336238 -273.3125 324.4375 C-272.96513794 323.86866089 -272.61777588 323.29982178 -272.2598877 322.71374512 C-264.46117921 309.94531628 -256.5909168 297.22856668 -248.53051758 284.62353516 C-244.24691743 277.92209689 -240.01927248 271.18739858 -235.8125 264.4375 C-229.84525084 254.867732 -223.82066951 245.33649481 -217.75 235.83203125 C-215.50606739 232.31767396 -213.27727185 228.79452058 -211.0625 225.26171875 C-201.23804923 209.62991949 -190.87962728 194.37539976 -180.46862793 179.13134766 C-178.83316691 176.73522717 -177.20182809 174.33630805 -175.5703125 171.9375 C-172.49921079 167.42721901 -169.40912861 162.93027929 -166.3125 158.4375 C-165.77141602 157.64939941 -165.23033203 156.86129883 -164.67285156 156.04931641 C-157.46922342 145.57150034 -150.03629991 135.31855915 -142.28515625 125.23852539 C-137.78012971 119.37969909 -133.3623811 113.46567511 -129 107.5 C-120.46501025 95.85200964 -111.54013334 84.54512654 -102.3125 73.4375 C-101.89532715 72.93395996 -101.4781543 72.43041992 -101.04833984 71.91162109 C-90.63843965 59.37268611 -79.56914927 47.49522448 -68.06787109 35.95263672 C-66.43769826 34.31269944 -64.81857004 32.66233353 -63.19921875 31.01171875 C-49.09161279 16.76282221 -21.83898821 -10.30140953 0 0 Z " fill="#FBFBFE" transform="translate(2988.3125,327.5625)"/>
<path d="M0 0 C7.68472341 6.4211665 13.19739068 14.55770491 14.9296875 24.55859375 C15.72471755 34.5725893 13.44620876 43.09535814 7.05078125 50.87109375 C-4.26442938 62.9567017 -18.10465292 71.74053366 -34.88671875 73.1171875 C-50.63138256 73.46570219 -63.49519156 69.53094242 -75.88671875 59.87109375 C-76.67304687 59.26265625 -77.459375 58.65421875 -78.26953125 58.02734375 C-86.20370642 51.46483954 -93.24394259 42.27045357 -94.88671875 31.87109375 C-96.00207217 19.38843006 -95.46246743 8.2205775 -87.38671875 -1.94140625 C-64.68193306 -25.35833466 -23.41085798 -17.26511177 0 0 Z " fill="#FBFBFD" transform="translate(1592.88671875,472.12890625)"/>
<path d="M0 0 C0 3 0 3 -1.40722656 4.48487854 C-2.06174805 5.01266403 -2.71626953 5.54044952 -3.390625 6.08422852 C-8.46111283 10.33678578 -13.08702374 14.9612366 -17.75 19.65234375 C-19.09807739 21.00254356 -19.09807739 21.00254356 -20.47338867 22.38002014 C-22.83586575 24.74711263 -25.19615112 27.11634639 -27.55535889 29.48669434 C-29.97385181 31.91550742 -32.39525946 34.34141103 -34.81640625 36.76757812 C-39.54692954 41.50907369 -44.27457973 46.25341898 -49 51 C-49 46.67534283 -46.41355824 44.83754089 -43.5625 41.875 C-42.96211914 41.24263428 -42.36173828 40.61026855 -41.74316406 39.95874023 C-35.86453097 33.8145235 -29.88925215 27.76131191 -23.89962769 21.72540283 C-22.81255441 20.62958149 -21.72684651 19.53240371 -20.64260864 18.43377686 C-14.09368618 11.80841471 -7.45414872 5.62583125 0 0 Z " fill="#E9E9EA" transform="translate(2945,341)"/>
<path d="M0 0 C0 3 0 3 -1.32873535 4.6894989 C-1.95050659 5.30460831 -2.57227783 5.91971771 -3.21289062 6.5534668 C-3.91361694 7.25396652 -4.61434326 7.95446625 -5.33630371 8.67619324 C-6.10188599 9.42629166 -6.86746826 10.17639008 -7.65625 10.94921875 C-8.43311157 11.72183548 -9.20997314 12.49445221 -10.01037598 13.29048157 C-12.49998527 15.76326115 -14.99980958 18.2254237 -17.5 20.6875 C-19.18687966 22.35933845 -20.87308657 24.03185599 -22.55859375 25.70507812 C-26.69794714 29.81130525 -30.84574107 33.90885641 -35 38 C-35 33.82609538 -33.33538518 32.83552096 -30.5 29.8125 C-30.01877686 29.29856689 -29.53755371 28.78463379 -29.04174805 28.25512695 C-24.70499379 23.66203289 -20.26572402 19.16735563 -15.8125 14.6875 C-15.16023437 14.03048096 -14.50796875 13.37346191 -13.8359375 12.6965332 C-9.3885539 8.26425013 -4.77268471 4.07925145 0 0 Z " fill="#F0F0F1" transform="translate(706,307)"/>
<path d="M0 0 C0 3 0 3 -1.82910156 5.09033203 C-2.6744043 5.88810059 -3.51970703 6.68586914 -4.390625 7.5078125 C-5.32310059 8.40483887 -6.25557617 9.30186523 -7.21630859 10.22607422 C-7.96059113 10.93615631 -7.96059113 10.93615631 -8.71990967 11.6605835 C-18.44479689 20.96806362 -26.81297512 30.56747519 -34 42 C-34.33 41.34 -34.66 40.68 -35 40 C-25.18588089 25.19400796 -14.10119916 10.98697673 0 0 Z " fill="#EFEFF0" transform="translate(282,699)"/>
<path d="M0 0 C0.66 0.66 1.32 1.32 2 2 C0.0513635 5.98398777 -1.91050619 9.96131058 -3.875 13.9375 C-4.43058594 15.07380859 -4.98617187 16.21011719 -5.55859375 17.38085938 C-6.09355469 18.46044922 -6.62851563 19.54003906 -7.1796875 20.65234375 C-7.67194824 21.65257568 -8.16420898 22.65280762 -8.67138672 23.68334961 C-10 26 -10 26 -12 27 C-10.50646132 22.15731399 -8.54903216 17.6859278 -6.375 13.125 C-5.26125 10.77375 -4.1475 8.4225 -3 6 C-7.95 10.95 -12.9 15.9 -18 21 C-18 18 -18 18 -16.34765625 16.00708008 C-15.21650391 14.89949341 -15.21650391 14.89949341 -14.0625 13.76953125 C-13.25039062 12.96708984 -12.43828125 12.16464844 -11.6015625 11.33789062 C-10.74304687 10.50451172 -9.88453125 9.67113281 -9 8.8125 C-7.71222656 7.5450293 -7.71222656 7.5450293 -6.3984375 6.25195312 C-4.2721635 4.16111702 -2.13921536 2.07758017 0 0 Z " fill="#E3E3E4" transform="translate(2432,815)"/>
<path d="M0 0 C0.33 0.99 0.66 1.98 1 3 C-0.35523152 5.5520989 -1.76898942 7.94007998 -3.3125 10.375 C-7.48698928 17.19848248 -11.18733537 24.15221727 -14.625 31.375 C-15.06239502 32.28427246 -15.49979004 33.19354492 -15.95043945 34.13037109 C-18.29741536 38.86090454 -18.29741536 38.86090454 -19 44 C-19.99 44 -20.98 44 -22 44 C-20.02190409 37.46700076 -17.46525308 31.45501013 -14.375 25.375 C-13.94203613 24.51487305 -13.50907227 23.65474609 -13.06298828 22.76855469 C-9.0754696 14.94994741 -4.66198814 7.43215501 0 0 Z " fill="#ECECEC" transform="translate(2723,749)"/>
<path d="M0 0 C-1.68609375 0.94939453 -1.68609375 0.94939453 -3.40625 1.91796875 C-8.83341073 5.30994421 -13.06733773 9.73906099 -17.5 14.3125 C-18.32242188 15.14845703 -19.14484375 15.98441406 -19.9921875 16.84570312 C-22.00185336 18.89042129 -24.00412487 20.94183363 -26 23 C-26 18.83296583 -23.72237221 17.11691901 -21 14.25 C-20.50105225 13.71648926 -20.00210449 13.18297852 -19.48803711 12.63330078 C-5.72825254 -1.90941751 -5.72825254 -1.90941751 0 0 Z " fill="#EBEBEC" transform="translate(3165,777)"/>
<path d="M0 0 C0 3 0 3 -1.28515625 4.62573242 C-2.16494141 5.4819519 -2.16494141 5.4819519 -3.0625 6.35546875 C-3.69414063 6.97744141 -4.32578125 7.59941406 -4.9765625 8.24023438 C-5.64429688 8.88283203 -6.31203125 9.52542969 -7 10.1875 C-8.00160156 11.16879883 -8.00160156 11.16879883 -9.0234375 12.16992188 C-10.67578441 13.78686135 -12.33471601 15.39640491 -14 17 C-14 12.72376632 -11.48040569 10.87832756 -8.6875 7.9375 C-8.18798828 7.39544922 -7.68847656 6.85339844 -7.17382812 6.29492188 C-4.89542888 3.85356427 -2.78981868 1.85987912 0 0 Z " fill="#EEEEEF" transform="translate(1764,586)"/>
<path d="M0 0 C1.60080151 4.00200378 0.29279692 7.04556236 -1 11 C0.65 9.35 2.3 7.7 4 6 C4.66 6.33 5.32 6.66 6 7 C4.71451591 8.33929505 3.42141845 9.67128643 2.125 11 C1.40570312 11.7425 0.68640625 12.485 -0.0546875 13.25 C-2 15 -2 15 -4 15 C-2.9318153 9.88634986 -1.76892524 4.92772031 0 0 Z " fill="#F0F0F0" transform="translate(1671,864)"/>
<path d="M0 0 C0.99 0.33 1.98 0.66 3 1 C1.8758824 2.29243468 0.75067408 3.58392075 -0.375 4.875 C-1.00148438 5.59429688 -1.62796875 6.31359375 -2.2734375 7.0546875 C-3.47426834 8.4076598 -4.7208345 9.7208345 -6 11 C-5.62671065 5.64951939 -4.0042343 3.49087093 0 0 Z " fill="#EDEDEE" transform="translate(2000,1162)"/>
<path d="M0 0 C0.66 0.66 1.32 1.32 2 2 C0.02 4.97 0.02 4.97 -2 8 C-2.33 7.01 -2.66 6.02 -3 5 C-4.98 5.99 -4.98 5.99 -7 7 C-4.66666667 4.66666667 -2.33333333 2.33333333 0 0 Z " fill="#E9E9EA" transform="translate(1977,632)"/>
<path d="M0 0 C0.66 0.66 1.32 1.32 2 2 C0.22197007 3.77802993 -1.59683274 5.42142145 -3.5 7.0625 C-4.1084375 7.58972656 -4.716875 8.11695313 -5.34375 8.66015625 C-7 10 -7 10 -9 11 C-7.59155282 7.78475695 -5.89655214 5.67816132 -3.375 3.25 C-2.74335937 2.63640625 -2.11171875 2.0228125 -1.4609375 1.390625 C-0.73777344 0.70226562 -0.73777344 0.70226562 0 0 Z " fill="#E4E4E5" transform="translate(1634,786)"/>
<path d="M0 0 C-0.33 1.98 -0.66 3.96 -1 6 C-1.66 5.34 -2.32 4.68 -3 4 C-5.97 6.475 -5.97 6.475 -9 9 C-7.45665977 5.21180126 -4.44676575 0 0 0 Z " fill="#DEDEDE" transform="translate(2104,866)"/>
<path d="M0 0 C3.35620271 1.38877354 5.07298728 2.91677965 7 6 C7 6.66 7 7.32 7 8 C5.35 7.67 3.7 7.34 2 7 C2.66 6.67 3.32 6.34 4 6 C2.68 4.02 1.36 2.04 0 0 Z " fill="#E8E8E9" transform="translate(437,1024)"/>
</svg>
