<svg xmlns="http://www.w3.org/2000/svg" xmlns:xlink="http://www.w3.org/1999/xlink" version="1.1" width="940" height="788" viewBox="0 0 940 788" xml:space="preserve">
<desc>Created with Fabric.js 3.5.0</desc>
<defs>
</defs>
<rect x="0" y="0" width="100%" height="100%" fill="rgba(255,255,255,0)"/>
<g transform="matrix(1 0 0 1 471.089 407.4113)" style="" id="846253">
		
<path xml:space="preserve" font-family="Alex Brush" font-size="200" font-style="normal" font-weight="normal" style="stroke: none; stroke-width: 1; stroke-dasharray: none; stroke-linecap: butt; stroke-dashoffset: 0; stroke-linejoin: miter; stroke-miterlimit: 4; is-custom-font: none; font-file-url: none; fill: rgb(255,255,255); fill-rule: nonzero; opacity: 1; white-space: pre;" d="M-279.30 5.63L-279.30 5.63L-259.90 5.23Q-252.70 5.23-252.70 6.23L-252.70 6.23Q-252.70 8.83-281.90 10.83L-281.90 10.83Q-300.50 47.23-300.50 60.43L-300.50 60.43Q-300.50 69.63-294.70 69.63L-294.70 69.63Q-292.50 69.63-289.20 66.93Q-285.90 64.23-285.20 64.23Q-284.50 64.23-284.50 65.23L-284.50 65.23Q-285.50 68.83-290.60 71.23Q-295.70 73.63-299.20 73.63Q-302.70 73.63-304.70 73.23L-304.70 73.23Q-309.50 71.43-309.50 61.63L-309.50 61.63Q-309.50 41.43-294.10 10.23L-294.10 10.23L-318.10 10.83Q-344.90 37.03-371.90 56.83L-371.90 56.83Q-412.30 86.23-435.10 86.23L-435.10 86.23Q-436.50 86.23-437.90 86.03L-437.90 86.03Q-468.70 83.43-468.70 54.43L-468.70 54.43Q-468.70 37.23-457.90 18.03L-457.90 18.03Q-443.50-7.57-418.50-25.67Q-393.50-43.77-373.70-43.77Q-353.90-43.77-353.90-29.17L-353.90-29.17Q-353.90-19.37-359.90-7.37Q-365.90 4.63-372.10 7.83L-372.10 7.83Q-372.70 8.03-373.40 8.03Q-374.10 8.03-374.10 7.63L-374.10 7.63L-367.50-3.17Q-360.70-13.77-360.70-21.77Q-360.70-29.77-364.20-34.67Q-367.70-39.57-375.30-39.57L-375.30-39.57Q-390.90-39.57-412.60-22.17Q-434.30-4.77-445.60 20.63Q-456.90 46.03-456.90 60.23L-456.90 60.23Q-456.90 81.63-435.10 81.63L-435.10 81.63Q-414.30 81.63-378.70 54.83L-378.70 54.83Q-362.90 43.03-327.30 10.23L-327.30 10.23Q-334.30 10.63-340.30 11.63L-340.30 11.63Q-353.10 14.03-352.30 10.83L-352.30 10.83Q-351.50 3.43-344.70 3.43L-344.70 3.43Q-331.50 5.03-322.50 5.03L-322.50 5.03Q-305.30-10.77-271.10-46.77L-271.10-46.77Q-248.10-70.97-243.10-70.97L-243.10-70.97Q-240.90-70.97-240.90-67.57Q-240.90-64.17-242.70-56.97Q-244.50-49.77-246.70-48.17L-246.70-48.17Q-251.30-44.97-255.30-39.47Q-259.30-33.97-266.70-18.87Q-274.10-3.77-279.30 5.63ZM-263.30-43.17L-263.30-43.17L-314.50 4.83L-302.70 4.83Q-298.50 5.03-292.30 5.03L-292.30 5.03Q-286.50-6.37-263.30-43.17ZM-223.70 63.83L-223.70 63.83Q-238.70 63.83-238.70 47.23L-238.70 47.23Q-238.70 38.83-234.30 28.83Q-229.90 18.83-224.70 12.03L-224.70 12.03Q-225.70 12.23-227.30 12.23L-227.30 12.23Q-232.10 12.23-235.30 5.43L-235.30 5.43L-250.10 24.63Q-262.50 40.03-264.50 40.03L-264.50 40.03Q-265.50 40.03-265.50 39.23L-265.50 39.23Q-265.50 37.23-262.10 33.43L-262.10 33.43Q-244.70 13.23-237.50-0.77L-237.50-0.77Q-232.90-18.17-225.90-18.17L-225.90-18.17Q-221.30-18.17-221.30-14.17Q-221.30-10.17-226.30-3.97L-226.30-3.97L-231.10 2.43Q-231.10 6.63-224.90 6.63L-224.90 6.63Q-221.30 6.63-216.90 4.03L-216.90 4.03L-211.70 0.83Q-211.30 0.63-209.70 0.63Q-208.10 0.63-206.30 2.63Q-204.50 4.63-205.10 6.23L-205.10 6.23L-218.90 23.63Q-231.70 40.03-231.70 49.53Q-231.70 59.03-222.90 59.03L-222.90 59.03Q-213.70 59.03-200.30 49.23L-200.30 49.23Q-192.30 43.43-185.70 36.23L-185.70 36.23Q-179.50 29.03-178.90 29.03L-178.90 29.03Q-177.50 29.03-177.50 30.53Q-177.50 32.03-179.30 34.03L-179.30 34.03L-185.70 41.23Q-191.10 46.83-197.70 52.03L-197.70 52.03Q-213.50 63.83-223.70 63.83ZM-142.30-18.77Q-139.30-18.77-136.60-16.87Q-133.90-14.97-133.90-12.37Q-133.90-9.77-136.40-7.87Q-138.90-5.97-141.90-5.97Q-144.90-5.97-147.40-8.17Q-149.90-10.37-149.90-13.17L-149.90-13.17Q-149.90-18.77-142.30-18.77L-142.30-18.77ZM-178.50 65.03L-178.50 65.03Q-188.70 65.03-188.70 51.83L-188.70 51.83Q-188.70 41.03-176.90 21.93Q-165.10 2.83-157.90 2.63L-157.90 2.63Q-155.90 2.63-153.40 4.23Q-150.90 5.83-150.90 7.43L-150.90 7.43Q-151.90 8.83-153.30 10.53Q-154.70 12.23-156.30 14.23Q-157.90 16.23-160.70 19.93Q-163.50 23.63-166.10 27.03L-166.10 27.03Q-181.10 46.43-181.10 53.73Q-181.10 61.03-176.10 61.03L-176.10 61.03Q-171.90 61.03-164.70 56.43L-164.70 56.43Q-147.90 46.03-138.10 33.63L-138.10 33.63Q-134.50 29.03-133.20 29.03Q-131.90 29.03-131.90 30.63Q-131.90 32.23-136.50 37.03Q-141.10 41.83-143.80 44.63Q-146.50 47.43-147.50 48.33Q-148.50 49.23-151.20 51.73Q-153.90 54.23-155.30 55.23Q-156.70 56.23-159.30 58.23Q-161.90 60.23-163.90 61.13Q-165.90 62.03-168.50 63.23L-168.50 63.23Q-172.70 65.03-178.50 65.03ZM-99.70-19.17Q-96.70-19.17-94-17.17Q-91.30-15.17-91.30-12.67Q-91.30-10.17-93.80-8.27Q-96.30-6.37-99.30-6.37Q-102.30-6.37-104.80-8.47Q-107.30-10.57-107.30-13.37L-107.30-13.37Q-107.30-19.17-99.70-19.17L-99.70-19.17ZM-103.50 8.43L-103.50 8.43Q-103.50 9.63-119.30 36.83L-119.30 36.83Q-134.70 66.23-143.10 77.83L-143.10 77.83Q-161.30 103.83-177.30 103.83L-177.30 103.83Q-183.30 103.83-188.40 99.93Q-193.50 96.03-193.50 92.13Q-193.50 88.23-191.70 88.23L-191.70 88.23Q-191.50 88.23-187.60 93.33Q-183.70 98.43-178.50 98.43L-178.50 98.43Q-162.50 98.43-142.10 62.23L-142.10 62.23Q-129.50 39.63-124.90 25.63L-124.90 25.63Q-127.30 28.43-133.20 33.83Q-139.10 39.23-140.40 39.23Q-141.70 39.23-141.70 38.63L-141.70 38.63Q-141.70 36.83-138.50 34.03Q-135.30 31.23-129.90 23.43Q-124.50 15.63-123.50 14.83L-123.50 14.83L-116.90 7.83Q-112.90 4.03-108.20 4.03Q-103.50 4.03-103.50 8.43ZM-56.90-18.77Q-53.90-18.77-51.20-16.87Q-48.50-14.97-48.50-12.37Q-48.50-9.77-51.00-7.87Q-53.50-5.97-56.50-5.97Q-59.50-5.97-62.00-8.17Q-64.50-10.37-64.50-13.17L-64.50-13.17Q-64.50-18.77-56.90-18.77L-56.90-18.77ZM-93.10 65.03L-93.10 65.03Q-103.30 65.03-103.30 51.83L-103.30 51.83Q-103.30 41.03-91.50 21.93Q-79.70 2.83-72.50 2.63L-72.50 2.63Q-70.50 2.63-68 4.23Q-65.50 5.83-65.50 7.43L-65.50 7.43Q-66.50 8.83-67.90 10.53Q-69.30 12.23-70.90 14.23Q-72.50 16.23-75.30 19.93Q-78.10 23.63-80.70 27.03L-80.70 27.03Q-95.70 46.43-95.70 53.73Q-95.70 61.03-90.70 61.03L-90.70 61.03Q-86.50 61.03-79.30 56.43L-79.30 56.43Q-62.50 46.03-52.70 33.63L-52.70 33.63Q-49.10 29.03-47.80 29.03Q-46.50 29.03-46.50 30.63Q-46.50 32.23-51.10 37.03Q-55.70 41.83-58.40 44.63Q-61.10 47.43-62.10 48.33Q-63.10 49.23-65.80 51.73Q-68.50 54.23-69.90 55.23Q-71.30 56.23-73.90 58.23Q-76.50 60.23-78.50 61.13Q-80.50 62.03-83.10 63.23L-83.10 63.23Q-87.30 65.03-93.10 65.03ZM-2.90-1.57L-2.90-1.57L25.90-1.97Q26.50-1.57 26.50-1.37L26.50-1.37Q26.50 0.43 1.60 3.63Q-23.30 6.83-25.30 7.43L-25.30 7.43Q-29.10 10.83-39.30 27.73Q-49.50 44.63-49.50 52.43L-49.50 52.43Q-49.50 59.83-39.30 59.83L-39.30 59.83Q-34.50 59.83-26.70 56.83Q-18.90 53.83-14.70 51.23L-14.70 51.23Q-3.50 44.23 9.30 30.63L9.30 30.63Q12.10 27.83 13.10 27.83L13.10 27.83Q13.70 27.83 13.70 29.03Q13.70 30.23 10.70 33.83L10.70 33.83Q0.30 46.63-12.70 54.43L-12.70 54.43Q-28.30 64.03-42.50 64.03L-42.50 64.03Q-48.70 64.03-52.60 61.33Q-56.50 58.63-56.50 50.43Q-56.50 42.23-49.30 27.93Q-42.10 13.63-38.30 6.63L-38.30 6.63Q-41.10 7.23-43.10 7.23L-43.10 7.23Q-48.90 7.23-48.90 2.63L-48.90 2.63Q-48.90-0.77-44.10-2.17L-44.10-2.17Q-43.50-2.17-42.30-2.37L-42.30-2.37L-30.70-2.37Q-27.10-6.97-22.50-12.97L-22.50-12.97Q-16.90-20.17-14.90-20.17Q-12.90-20.17-9.90-18.57Q-6.90-16.97-6.90-14.77Q-6.90-12.57-16.50-1.77L-16.50-1.77Q-11.30-1.57-2.90-1.57ZM202.10-22.77L202.10-22.77Q194.70-19.77 189.40-19.77Q184.10-19.77 184.10-21.97L184.10-21.97Q184.10-23.37 190-23.57Q195.90-23.77 198.50-24.97L198.50-24.97Q206.10-28.97 206.10-36.77L206.10-36.77Q206.10-40.77 203.90-45.17L203.90-45.17Q197.50-56.57 172.90-56.57L172.90-56.57Q158.70-56.57 144.50-52.27Q130.30-47.97 120.70-39.07Q111.10-30.17 111.10-22.57L111.10-22.57Q111.10-10.97 134.10-5.57L134.10-5.57L157.70-1.17Q171.90 1.43 178.90 6.03L178.90 6.03Q188.10 11.63 188.10 22.03L188.10 22.03Q188.10 26.23 186.70 31.03L186.70 31.03Q180.30 52.63 153.70 64.03L153.70 64.03Q131.50 73.83 101.30 73.83L101.30 73.83Q92.70 73.83 86.30 73.03L86.30 73.03Q92.70 76.63 103.10 79.23L103.10 79.23Q103.90 79.43 103.90 80.03L103.90 80.03Q103.90 81.83 99.70 81.83L99.70 81.83Q91.50 81.83 79.30 72.03L79.30 72.03Q62.70 69.43 54.50 62.83L54.50 62.83Q49.30 58.63 44.90 50.43Q40.50 42.23 40.50 35.63Q40.50 29.03 43.10 24.63L43.10 24.63Q49.10 14.03 58.30 14.03L58.30 14.03Q65.30 14.03 66.50 25.83L66.50 25.83Q69.30 48.63 70.30 51.83L70.30 51.83Q73.30 61.63 80.50 68.43L80.50 68.43Q88.90 70.23 98.70 70.23L98.70 70.23Q120.30 70.23 141.10 61.63Q161.90 53.03 171.10 37.23L171.10 37.23Q174.90 31.03 174.90 26.23L174.90 26.23Q174.90 16.83 158.30 11.63L158.30 11.63L123.10 3.63Q112.30 1.03 105.80-4.97Q99.30-10.97 99.30-18.77L99.30-18.77Q99.30-30.77 114.30-42.77L114.30-42.77Q125.70-51.97 142.20-57.07Q158.70-62.17 174.60-62.17Q190.50-62.17 200.90-57.57L200.90-57.57Q214.30-51.37 214.30-39.47Q214.30-27.57 202.10-22.77ZM73.30 66.43L73.30 66.43Q61.70 53.63 58.50 31.43L58.50 31.43Q56.70 18.83 55.10 18.83Q53.50 18.83 52.10 19.73Q50.70 20.63 49.30 23.63Q47.90 26.63 47.90 31.43L47.90 31.43Q47.90 46.83 58.70 57.83L58.70 57.83Q64.10 63.43 73.30 66.43ZM236.90-18.77Q239.90-18.77 242.60-16.87Q245.30-14.97 245.30-12.37Q245.30-9.77 242.80-7.87Q240.30-5.97 237.30-5.97Q234.30-5.97 231.80-8.17Q229.30-10.37 229.30-13.17L229.30-13.17Q229.30-18.77 236.90-18.77L236.90-18.77ZM200.70 65.03L200.70 65.03Q190.50 65.03 190.50 51.83L190.50 51.83Q190.50 41.03 202.30 21.93Q214.10 2.83 221.30 2.63L221.30 2.63Q223.30 2.63 225.80 4.23Q228.30 5.83 228.30 7.43L228.30 7.43Q227.30 8.83 225.90 10.53Q224.50 12.23 222.90 14.23Q221.30 16.23 218.50 19.93Q215.70 23.63 213.10 27.03L213.10 27.03Q198.10 46.43 198.10 53.73Q198.10 61.03 203.10 61.03L203.10 61.03Q207.30 61.03 214.50 56.43L214.50 56.43Q231.30 46.03 241.10 33.63L241.10 33.63Q244.70 29.03 246 29.03Q247.30 29.03 247.30 30.63Q247.30 32.23 242.70 37.03Q238.10 41.83 235.40 44.63Q232.70 47.43 231.70 48.33Q230.70 49.23 228 51.73Q225.30 54.23 223.90 55.23Q222.50 56.23 219.90 58.23Q217.30 60.23 215.30 61.13Q213.30 62.03 210.70 63.23L210.70 63.23Q206.50 65.03 200.70 65.03ZM270.90-0.37L270.90-0.37Q276.30-0.37 276.30 3.83L276.30 3.83Q276.30 5.03 275.70 6.23L275.70 6.23Q257.70 31.23 254.10 44.03L254.10 44.03Q300.70-2.57 310.70-2.57L310.70-2.57Q311.70-2.77 312.50-2.77L312.50-2.77Q318.10-2.77 318.10 2.23L318.10 2.23Q318.10 3.23 317.70 4.23Q317.30 5.23 309.70 15.03L309.70 15.03Q300.90 25.43 294.80 35.03Q288.70 44.63 288.70 51.03Q288.70 57.43 291.50 57.43L291.50 57.43Q300.30 57.43 322.10 33.23L322.10 33.23Q322.50 32.83 323.50 31.43L323.50 31.43Q326.50 27.83 327.10 27.83Q327.70 27.83 327.70 29.83Q327.70 31.83 324.90 35.03L324.90 35.03Q300.10 63.23 289.70 63.23L289.70 63.23Q279.90 63.23 279.90 52.43Q279.90 41.63 287.90 27.63L287.90 27.63L300.70 6.83Q287.10 16.83 276.50 28.73Q265.90 40.63 257.20 51.83Q248.50 63.03 247.10 63.03L247.10 63.03Q244.10 63.03 242.40 60.53Q240.70 58.03 240.70 54.33Q240.70 50.63 243.30 44.43Q245.90 38.23 249.90 29.43L249.90 29.43L237.90 42.03Q233.50 46.43 232.40 46.43Q231.30 46.43 231.30 45.13Q231.30 43.83 232.90 42.23L232.90 42.23Q240.30 34.83 245.70 28.03L245.70 28.03Q250.90 21.23 267.10 2.03L267.10 2.03Q268.90-0.37 270.90-0.37ZM386.10 1.83L386.10 1.83L388.90 1.23Q391.50 1.23 393 2.83Q394.50 4.43 394.50 5.33Q394.50 6.23 394.30 7.33Q394.10 8.43 388.50 17.43L388.50 17.43Q381.50 29.63 376.90 38.03L376.90 38.03Q360.70 68.23 352.10 79.43L352.10 79.43Q333.70 103.83 317.10 103.83L317.10 103.83Q311.30 103.83 307 98.93Q302.70 94.03 302.50 88.03L302.50 88.03Q303.10 85.63 304.30 85.63L304.30 85.63Q304.90 85.63 305.30 87.03L305.30 87.03Q306.30 92.23 309.10 95.03Q311.90 97.83 314.70 97.83L314.70 97.83Q326.10 97.83 339.10 82.83L339.10 82.83Q347.70 72.83 358.10 53.63L358.10 53.63L368.10 33.83L353.10 49.03Q338.70 62.83 333.40 62.83Q328.10 62.83 323.30 59.23L323.30 59.23Q317.90 55.23 317.90 48.63L317.90 48.63Q317.90 34.03 338.40 13.83Q358.90-6.37 375.70-6.37L375.70-6.37Q382.50-6.37 384.50-1.97L384.50-1.97Q385.10-0.37 385.50 0.73Q385.90 1.83 386.10 1.83ZM326.30 51.03L326.30 51.03Q326.30 58.23 331.30 58.23L331.30 58.23Q342.90 58.23 362.90 32.83L362.90 32.83L384.10 3.63Q382.90 0.83 379.10 0.83L379.10 0.83Q366.70 0.83 346.50 19.93Q326.30 39.03 326.30 51.03ZM440.70 62.03L440.70 62.03Q428.90 62.03 428.90 48.23L428.90 48.23Q428.90 40.43 434.40 30.93Q439.90 21.43 447.90 8.63L447.90 8.63Q422.30 21.43 401.50 46.43L401.50 46.43Q389.90 63.83 387.90 63.83L387.90 63.83Q382.10 63.83 382.10 60.43L382.10 60.43Q382.10 58.63 384.50 54.03L384.50 54.03Q403.90 19.43 413.90 3.43L413.90 3.43Q437.70-34.77 447.50-37.97L447.50-37.97Q447.90-38.17 448.30-38.17L448.30-38.17Q450.90-38.17 451.90-33.97L451.90-33.97Q451.30-29.77 431.10-3.57L431.10-3.57Q410.10 23.03 407.30 31.23L407.30 31.23Q414.70 25.83 433.10 13.03L433.10 13.03Q452.90-0.77 459.30-0.77Q465.70-0.77 465.70 4.23L465.70 4.23Q465.70 5.03 465.60 5.33Q465.50 5.63 451.70 24.23Q437.90 42.83 437.90 51.63L437.90 51.63Q437.90 56.23 441.30 56.23L441.30 56.23Q452.10 55.83 473.70 30.23L473.70 30.23Q475.50 28.43 476.40 28.43Q477.30 28.43 477.30 29.63L477.30 29.63Q477.30 33.63 457.50 51.23L457.50 51.23Q445.10 62.03 440.70 62.03Z"/></g>
</svg>