<svg xmlns="http://www.w3.org/2000/svg" xmlns:xlink="http://www.w3.org/1999/xlink" version="1.1" width="940" height="788" viewBox="0 0 940 788" xml:space="preserve">
<desc>Created with Fabric.js 3.5.0</desc>
<defs>
</defs>
<rect x="0" y="0" width="100%" height="100%" fill="rgba(255,255,255,0)"/>
<g transform="matrix(1 0 0 1 562.7806 553.1613)" style="" id="846253">
		
<path xml:space="preserve" font-family="Alex Brush" font-size="500" font-style="normal" font-weight="normal" style="stroke: none; stroke-width: 1; stroke-dasharray: none; stroke-linecap: butt; stroke-dashoffset: 0; stroke-linejoin: miter; stroke-miterlimit: 4; is-custom-font: none; font-file-url: none; fill: rgb(255,255,255); fill-rule: nonzero; opacity: 1; white-space: pre;" d="M-118-240.18L-118-240.18L-69.50-241.18Q-51.50-241.18-51.50-238.68L-51.50-238.68Q-51.50-232.18-124.50-227.18L-124.50-227.18Q-171-136.18-171-103.18L-171-103.18Q-171-80.18-156.50-80.18L-156.50-80.18Q-151-80.18-142.75-86.93Q-134.50-93.68-132.75-93.68Q-131-93.68-131-91.18L-131-91.18Q-133.50-82.18-146.25-76.18Q-159-70.18-167.75-70.18Q-176.50-70.18-181.50-71.18L-181.50-71.18Q-193.50-75.68-193.50-100.18L-193.50-100.18Q-193.50-150.68-155-228.68L-155-228.68L-215-227.18Q-282-161.68-349.50-112.18L-349.50-112.18Q-450.50-38.68-507.50-38.68L-507.50-38.68Q-511-38.68-514.50-39.18L-514.50-39.18Q-591.50-45.68-591.50-118.18L-591.50-118.18Q-591.50-161.18-564.50-209.18L-564.50-209.18Q-528.50-273.18-466-318.43Q-403.50-363.68-354-363.68Q-304.50-363.68-304.50-327.18L-304.50-327.18Q-304.50-302.68-319.50-272.68Q-334.50-242.68-350-234.68L-350-234.68Q-351.50-234.18-353.25-234.18Q-355-234.18-355-235.18L-355-235.18L-338.50-262.18Q-321.50-288.68-321.50-308.68Q-321.50-328.68-330.25-340.93Q-339-353.18-358-353.18L-358-353.18Q-397-353.18-451.25-309.68Q-505.50-266.18-533.75-202.68Q-562-139.18-562-103.68L-562-103.68Q-562-50.18-507.50-50.18L-507.50-50.18Q-455.50-50.18-366.50-117.18L-366.50-117.18Q-327-146.68-238-228.68L-238-228.68Q-255.50-227.68-270.50-225.18L-270.50-225.18Q-302.50-219.18-300.50-227.18L-300.50-227.18Q-298.50-245.68-281.50-245.68L-281.50-245.68Q-248.50-241.68-226-241.68L-226-241.68Q-183-281.18-97.50-371.18L-97.50-371.18Q-40-431.68-27.50-431.68L-27.50-431.68Q-22-431.68-22-423.18Q-22-414.68-26.50-396.68Q-31-378.68-36.50-374.68L-36.50-374.68Q-48-366.68-58-352.93Q-68-339.18-86.50-301.43Q-105-263.68-118-240.18ZM-78-362.18L-78-362.18L-206-242.18L-176.50-242.18Q-166-241.68-150.50-241.68L-150.50-241.68Q-136-270.18-78-362.18ZM21-94.68L21-94.68Q-16.50-94.68-16.50-136.18L-16.50-136.18Q-16.50-157.18-5.50-182.18Q5.50-207.18 18.50-224.18L18.50-224.18Q16-223.68 12-223.68L12-223.68Q0-223.68-8-240.68L-8-240.68L-45-192.68Q-76-154.18-81-154.18L-81-154.18Q-83.50-154.18-83.50-156.18L-83.50-156.18Q-83.50-161.18-75-170.68L-75-170.68Q-31.50-221.18-13.50-256.18L-13.50-256.18Q-2-299.68 15.50-299.68L15.50-299.68Q27-299.68 27-289.68Q27-279.68 14.50-264.18L14.50-264.18L2.50-248.18Q2.50-237.68 18-237.68L18-237.68Q27-237.68 38-244.18L38-244.18L51-252.18Q52-252.68 56-252.68Q60-252.68 64.50-247.68Q69-242.68 67.50-238.68L67.50-238.68L33-195.18Q1-154.18 1-130.43Q1-106.68 23-106.68L23-106.68Q46-106.68 79.50-131.18L79.50-131.18Q99.50-145.68 116-163.68L116-163.68Q131.50-181.68 133-181.68L133-181.68Q136.50-181.68 136.50-177.93Q136.50-174.18 132-169.18L132-169.18L116-151.18Q102.50-137.18 86-124.18L86-124.18Q46.50-94.68 21-94.68ZM224.50-301.18Q232-301.18 238.75-296.43Q245.50-291.68 245.50-285.18Q245.50-278.68 239.25-273.93Q233-269.18 225.50-269.18Q218-269.18 211.75-274.68Q205.50-280.18 205.50-287.18L205.50-287.18Q205.50-301.18 224.50-301.18L224.50-301.18ZM134-91.68L134-91.68Q108.50-91.68 108.50-124.68L108.50-124.68Q108.50-151.68 138-199.43Q167.50-247.18 185.50-247.68L185.50-247.68Q190.50-247.68 196.75-243.68Q203-239.68 203-235.68L203-235.68Q200.50-232.18 197-227.93Q193.50-223.68 189.50-218.68Q185.50-213.68 178.50-204.43Q171.50-195.18 165-186.68L165-186.68Q127.50-138.18 127.50-119.93Q127.50-101.68 140-101.68L140-101.68Q150.50-101.68 168.50-113.18L168.50-113.18Q210.50-139.18 235-170.18L235-170.18Q244-181.68 247.25-181.68Q250.50-181.68 250.50-177.68Q250.50-173.68 239-161.68Q227.50-149.68 220.75-142.68Q214-135.68 211.50-133.43Q209-131.18 202.25-124.93Q195.50-118.68 192-116.18Q188.50-113.68 182-108.68Q175.50-103.68 170.50-101.43Q165.50-99.18 159-96.18L159-96.18Q148.50-91.68 134-91.68ZM331-302.18Q338.50-302.18 345.25-297.18Q352-292.18 352-285.93Q352-279.68 345.75-274.93Q339.50-270.18 332-270.18Q324.50-270.18 318.25-275.43Q312-280.68 312-287.68L312-287.68Q312-302.18 331-302.18L331-302.18ZM321.50-233.18L321.50-233.18Q321.50-230.18 282-162.18L282-162.18Q243.50-88.68 222.50-59.68L222.50-59.68Q177 5.32 137 5.32L137 5.32Q122 5.32 109.25-4.43Q96.50-14.18 96.50-23.93Q96.50-33.68 101-33.68L101-33.68Q101.50-33.68 111.25-20.93Q121-8.18 134-8.18L134-8.18Q174-8.18 225-98.68L225-98.68Q256.50-155.18 268-190.18L268-190.18Q262-183.18 247.25-169.68Q232.50-156.18 229.25-156.18Q226-156.18 226-157.68L226-157.68Q226-162.18 234-169.18Q242-176.18 255.50-195.68Q269-215.18 271.50-217.18L271.50-217.18L288-234.68Q298-244.18 309.75-244.18Q321.50-244.18 321.50-233.18ZM438-301.18Q445.50-301.18 452.25-296.43Q459-291.68 459-285.18Q459-278.68 452.75-273.93Q446.50-269.18 439-269.18Q431.50-269.18 425.25-274.68Q419-280.18 419-287.18L419-287.18Q419-301.18 438-301.18L438-301.18ZM347.50-91.68L347.50-91.68Q322-91.68 322-124.68L322-124.68Q322-151.68 351.50-199.43Q381-247.18 399-247.68L399-247.68Q404-247.68 410.25-243.68Q416.50-239.68 416.50-235.68L416.50-235.68Q414-232.18 410.50-227.93Q407-223.68 403-218.68Q399-213.68 392-204.43Q385-195.18 378.50-186.68L378.50-186.68Q341-138.18 341-119.93Q341-101.68 353.50-101.68L353.50-101.68Q364-101.68 382-113.18L382-113.18Q424-139.18 448.50-170.18L448.50-170.18Q457.50-181.68 460.75-181.68Q464-181.68 464-177.68Q464-173.68 452.50-161.68Q441-149.68 434.25-142.68Q427.50-135.68 425-133.43Q422.50-131.18 415.75-124.93Q409-118.68 405.50-116.18Q402-113.68 395.50-108.68Q389-103.68 384-101.43Q379-99.18 372.50-96.18L372.50-96.18Q362-91.68 347.50-91.68ZM573-258.18L573-258.18L645-259.18Q646.50-258.18 646.50-257.68L646.50-257.68Q646.50-253.18 584.25-245.18Q522-237.18 517-235.68L517-235.68Q507.50-227.18 482-184.93Q456.50-142.68 456.50-123.18L456.50-123.18Q456.50-104.68 482-104.68L482-104.68Q494-104.68 513.50-112.18Q533-119.68 543.50-126.18L543.50-126.18Q571.50-143.68 603.50-177.68L603.50-177.68Q610.50-184.68 613-184.68L613-184.68Q614.50-184.68 614.50-181.68Q614.50-178.68 607-169.68L607-169.68Q581-137.68 548.50-118.18L548.50-118.18Q509.50-94.18 474-94.18L474-94.18Q458.50-94.18 448.75-100.93Q439-107.68 439-128.18Q439-148.68 457-184.43Q475-220.18 484.50-237.68L484.50-237.68Q477.50-236.18 472.50-236.18L472.50-236.18Q458-236.18 458-247.68L458-247.68Q458-256.18 470-259.68L470-259.68Q471.50-259.68 474.50-260.18L474.50-260.18L503.50-260.18Q512.50-271.68 524-286.68L524-286.68Q538-304.68 543-304.68Q548-304.68 555.50-300.68Q563-296.68 563-291.18Q563-285.68 539-258.68L539-258.68Q552-258.18 573-258.18Z"/><path xml:space="preserve" font-family="Alex Brush" font-size="500" font-style="normal" font-weight="normal" style="stroke: none; stroke-width: 1; stroke-dasharray: none; stroke-linecap: butt; stroke-dashoffset: 0; stroke-linejoin: miter; stroke-miterlimit: 4; is-custom-font: none; font-file-url: none; fill: rgb(255,255,255); fill-rule: nonzero; opacity: 1; white-space: pre;" d="M-135.25 197.32L-135.25 197.32Q-153.75 204.82-167 204.82Q-180.25 204.82-180.25 199.32L-180.25 199.32Q-180.25 195.82-165.50 195.32Q-150.75 194.82-144.25 191.82L-144.25 191.82Q-125.25 181.82-125.25 162.32L-125.25 162.32Q-125.25 152.32-130.75 141.32L-130.75 141.32Q-146.75 112.82-208.25 112.82L-208.25 112.82Q-243.75 112.82-279.25 123.57Q-314.75 134.32-338.75 156.57Q-362.75 178.82-362.75 197.82L-362.75 197.82Q-362.75 226.82-305.25 240.32L-305.25 240.32L-246.25 251.32Q-210.75 257.82-193.25 269.32L-193.25 269.32Q-170.25 283.32-170.25 309.32L-170.25 309.32Q-170.25 319.82-173.75 331.82L-173.75 331.82Q-189.75 385.82-256.25 414.32L-256.25 414.32Q-311.75 438.82-387.25 438.82L-387.25 438.82Q-408.75 438.82-424.75 436.82L-424.75 436.82Q-408.75 445.82-382.75 452.32L-382.75 452.32Q-380.75 452.82-380.75 454.32L-380.75 454.32Q-380.75 458.82-391.25 458.82L-391.25 458.82Q-411.75 458.82-442.25 434.32L-442.25 434.32Q-483.75 427.82-504.25 411.32L-504.25 411.32Q-517.25 400.82-528.25 380.32Q-539.25 359.82-539.25 343.32Q-539.25 326.82-532.75 315.82L-532.75 315.82Q-517.75 289.32-494.75 289.32L-494.75 289.32Q-477.25 289.32-474.25 318.82L-474.25 318.82Q-467.25 375.82-464.75 383.82L-464.75 383.82Q-457.25 408.32-439.25 425.32L-439.25 425.32Q-418.25 429.82-393.75 429.82L-393.75 429.82Q-339.75 429.82-287.75 408.32Q-235.75 386.82-212.75 347.32L-212.75 347.32Q-203.25 331.82-203.25 319.82L-203.25 319.82Q-203.25 296.32-244.75 283.32L-244.75 283.32L-332.75 263.32Q-359.75 256.82-376 241.82Q-392.25 226.82-392.25 207.32L-392.25 207.32Q-392.25 177.32-354.75 147.32L-354.75 147.32Q-326.25 124.32-285 111.57Q-243.75 98.82-204 98.82Q-164.25 98.82-138.25 110.32L-138.25 110.32Q-104.75 125.82-104.75 155.57Q-104.75 185.32-135.25 197.32ZM-457.25 420.32L-457.25 420.32Q-486.25 388.32-494.25 332.82L-494.25 332.82Q-498.75 301.32-502.75 301.32Q-506.75 301.32-510.25 303.57Q-513.75 305.82-517.25 313.32Q-520.75 320.82-520.75 332.82L-520.75 332.82Q-520.75 371.32-493.75 398.82L-493.75 398.82Q-480.25 412.82-457.25 420.32ZM-48.25 207.32Q-40.75 207.32-34 212.07Q-27.25 216.82-27.25 223.32Q-27.25 229.82-33.50 234.57Q-39.75 239.32-47.25 239.32Q-54.75 239.32-61 233.82Q-67.25 228.32-67.25 221.32L-67.25 221.32Q-67.25 207.32-48.25 207.32L-48.25 207.32ZM-138.75 416.82L-138.75 416.82Q-164.25 416.82-164.25 383.82L-164.25 383.82Q-164.25 356.82-134.75 309.07Q-105.25 261.32-87.25 260.82L-87.25 260.82Q-82.25 260.82-76 264.82Q-69.75 268.82-69.75 272.82L-69.75 272.82Q-72.25 276.32-75.75 280.57Q-79.25 284.82-83.25 289.82Q-87.25 294.82-94.25 304.07Q-101.25 313.32-107.75 321.82L-107.75 321.82Q-145.25 370.32-145.25 388.57Q-145.25 406.82-132.75 406.82L-132.75 406.82Q-122.25 406.82-104.25 395.32L-104.25 395.32Q-62.25 369.32-37.75 338.32L-37.75 338.32Q-28.75 326.82-25.50 326.82Q-22.25 326.82-22.25 330.82Q-22.25 334.82-33.75 346.82Q-45.25 358.82-52 365.82Q-58.75 372.82-61.25 375.07Q-63.75 377.32-70.50 383.57Q-77.25 389.82-80.75 392.32Q-84.25 394.82-90.75 399.82Q-97.25 404.82-102.25 407.07Q-107.25 409.32-113.75 412.32L-113.75 412.32Q-124.25 416.82-138.75 416.82ZM36.75 253.32L36.75 253.32Q50.25 253.32 50.25 263.82L50.25 263.82Q50.25 266.82 48.75 269.82L48.75 269.82Q3.75 332.32-5.25 364.32L-5.25 364.32Q111.25 247.82 136.25 247.82L136.25 247.82Q138.75 247.32 140.75 247.32L140.75 247.32Q154.75 247.32 154.75 259.82L154.75 259.82Q154.75 262.32 153.75 264.82Q152.75 267.32 133.75 291.82L133.75 291.82Q111.75 317.82 96.50 341.82Q81.25 365.82 81.25 381.82Q81.25 397.82 88.25 397.82L88.25 397.82Q110.25 397.82 164.75 337.32L164.75 337.32Q165.75 336.32 168.25 332.82L168.25 332.82Q175.75 323.82 177.25 323.82Q178.75 323.82 178.75 328.82Q178.75 333.82 171.75 341.82L171.75 341.82Q109.75 412.32 83.75 412.32L83.75 412.32Q59.25 412.32 59.25 385.32Q59.25 358.32 79.25 323.32L79.25 323.32L111.25 271.32Q77.25 296.32 50.75 326.07Q24.25 355.82 2.50 383.82Q-19.25 411.82-22.75 411.82L-22.75 411.82Q-30.25 411.82-34.50 405.57Q-38.75 399.32-38.75 390.07Q-38.75 380.82-32.25 365.32Q-25.75 349.82-15.75 327.82L-15.75 327.82L-45.75 359.32Q-56.75 370.32-59.50 370.32Q-62.25 370.32-62.25 367.07Q-62.25 363.82-58.25 359.82L-58.25 359.82Q-39.75 341.32-26.25 324.32L-26.25 324.32Q-13.25 307.32 27.25 259.32L27.25 259.32Q31.75 253.32 36.75 253.32ZM324.75 258.82L324.75 258.82L331.75 257.32Q338.25 257.32 342 261.32Q345.75 265.32 345.75 267.57Q345.75 269.82 345.25 272.57Q344.75 275.32 330.75 297.82L330.75 297.82Q313.25 328.32 301.75 349.32L301.75 349.32Q261.25 424.82 239.75 452.82L239.75 452.82Q193.75 513.82 152.25 513.82L152.25 513.82Q137.75 513.82 127 501.57Q116.25 489.32 115.75 474.32L115.75 474.32Q117.25 468.32 120.25 468.32L120.25 468.32Q121.75 468.32 122.75 471.82L122.75 471.82Q125.25 484.82 132.25 491.82Q139.25 498.82 146.25 498.82L146.25 498.82Q174.75 498.82 207.25 461.32L207.25 461.32Q228.75 436.32 254.75 388.32L254.75 388.32L279.75 338.82L242.25 376.82Q206.25 411.32 193 411.32Q179.75 411.32 167.75 402.32L167.75 402.32Q154.25 392.32 154.25 375.82L154.25 375.82Q154.25 339.32 205.50 288.82Q256.75 238.32 298.75 238.32L298.75 238.32Q315.75 238.32 320.75 249.32L320.75 249.32Q322.25 253.32 323.25 256.07Q324.25 258.82 324.75 258.82ZM175.25 381.82L175.25 381.82Q175.25 399.82 187.75 399.82L187.75 399.82Q216.75 399.82 266.75 336.32L266.75 336.32L319.75 263.32Q316.75 256.32 307.25 256.32L307.25 256.32Q276.25 256.32 225.75 304.07Q175.25 351.82 175.25 381.82ZM461.25 409.32L461.25 409.32Q431.75 409.32 431.75 374.82L431.75 374.82Q431.75 355.32 445.50 331.57Q459.25 307.82 479.25 275.82L479.25 275.82Q415.25 307.82 363.25 370.32L363.25 370.32Q334.25 413.82 329.25 413.82L329.25 413.82Q314.75 413.82 314.75 405.32L314.75 405.32Q314.75 400.82 320.75 389.32L320.75 389.32Q369.25 302.82 394.25 262.82L394.25 262.82Q453.75 167.32 478.25 159.32L478.25 159.32Q479.25 158.82 480.25 158.82L480.25 158.82Q486.75 158.82 489.25 169.32L489.25 169.32Q487.75 179.82 437.25 245.32L437.25 245.32Q384.75 311.82 377.75 332.32L377.75 332.32Q396.25 318.82 442.25 286.82L442.25 286.82Q491.75 252.32 507.75 252.32Q523.75 252.32 523.75 264.82L523.75 264.82Q523.75 266.82 523.50 267.57Q523.25 268.32 488.75 314.82Q454.25 361.32 454.25 383.32L454.25 383.32Q454.25 394.82 462.75 394.82L462.75 394.82Q489.75 393.82 543.75 329.82L543.75 329.82Q548.25 325.32 550.50 325.32Q552.75 325.32 552.75 328.32L552.75 328.32Q552.75 338.32 503.25 382.32L503.25 382.32Q472.25 409.32 461.25 409.32Z"/></g>
</svg>