<svg xmlns="http://www.w3.org/2000/svg" xmlns:xlink="http://www.w3.org/1999/xlink" version="1.1" width="940" height="788" viewBox="0 0 940 788" xml:space="preserve">
<desc>Created with Fabric.js 3.5.0</desc>
<defs>
</defs>
<rect x="0" y="0" width="100%" height="100%" fill="rgba(255,255,255,0)"/>
<g transform="matrix(1 0 0 1 470 314.7513)" style="" id="846253">
		
<path xml:space="preserve" font-family="Alex Brush" font-size="36" font-style="normal" font-weight="normal" style="stroke: none; stroke-width: 1; stroke-dasharray: none; stroke-linecap: butt; stroke-dashoffset: 0; stroke-linejoin: miter; stroke-miterlimit: 4; is-custom-font: none; font-file-url: none; fill: rgb(255,255,255); fill-rule: nonzero; opacity: 1; white-space: pre;" d="M-50.27 1.01L-50.27 1.01L-46.78 0.94Q-45.49 0.94-45.49 1.12L-45.49 1.12Q-45.49 1.59-50.74 1.95L-50.74 1.95Q-54.09 8.50-54.09 10.88L-54.09 10.88Q-54.09 12.53-53.05 12.53L-53.05 12.53Q-52.65 12.53-52.06 12.05Q-51.46 11.56-51.34 11.56Q-51.21 11.56-51.21 11.74L-51.21 11.74Q-51.39 12.39-52.31 12.82Q-53.23 13.25-53.86 13.25Q-54.49 13.25-54.85 13.18L-54.85 13.18Q-55.71 12.86-55.71 11.09L-55.71 11.09Q-55.71 7.46-52.94 1.84L-52.94 1.84L-57.26 1.95Q-62.08 6.66-66.94 10.23L-66.94 10.23Q-74.21 15.52-78.32 15.52L-78.32 15.52Q-78.57 15.52-78.82 15.48L-78.82 15.48Q-84.37 15.02-84.37 9.80L-84.37 9.80Q-84.37 6.70-82.42 3.24L-82.42 3.24Q-79.83-1.36-75.33-4.62Q-70.83-7.88-67.27-7.88Q-63.70-7.88-63.70-5.25L-63.70-5.25Q-63.70-3.49-64.78-1.33Q-65.86 0.83-66.98 1.41L-66.98 1.41Q-67.09 1.44-67.21 1.44Q-67.34 1.44-67.34 1.37L-67.34 1.37L-66.15-0.57Q-64.93-2.48-64.93-3.92Q-64.93-5.36-65.56-6.24Q-66.19-7.12-67.55-7.12L-67.55-7.12Q-70.36-7.12-74.27-3.99Q-78.17-0.86-80.21 3.71Q-82.24 8.28-82.24 10.84L-82.24 10.84Q-82.24 14.69-78.32 14.69L-78.32 14.69Q-74.57 14.69-68.17 9.87L-68.17 9.87Q-65.32 7.74-58.91 1.84L-58.91 1.84Q-60.17 1.91-61.25 2.09L-61.25 2.09Q-63.56 2.52-63.41 1.95L-63.41 1.95Q-63.27 0.62-62.05 0.62L-62.05 0.62Q-59.67 0.90-58.05 0.90L-58.05 0.90Q-54.95-1.94-48.80-8.42L-48.80-8.42Q-44.66-12.78-43.76-12.78L-43.76-12.78Q-43.36-12.78-43.36-12.16Q-43.36-11.55-43.69-10.26Q-44.01-8.96-44.41-8.67L-44.41-8.67Q-45.23-8.10-45.95-7.11Q-46.67-6.12-48.01-3.40Q-49.34-0.68-50.27 1.01ZM-47.39-7.77L-47.39-7.77L-56.61 0.87L-54.49 0.87Q-53.73 0.90-52.61 0.90L-52.61 0.90Q-51.57-1.15-47.39-7.77ZM-40.27 11.49L-40.27 11.49Q-42.97 11.49-42.97 8.50L-42.97 8.50Q-42.97 6.99-42.17 5.19Q-41.38 3.39-40.45 2.16L-40.45 2.16Q-40.63 2.20-40.91 2.20L-40.91 2.20Q-41.78 2.20-42.35 0.98L-42.35 0.98L-45.02 4.43Q-47.25 7.20-47.61 7.20L-47.61 7.20Q-47.79 7.20-47.79 7.06L-47.79 7.06Q-47.79 6.70-47.18 6.02L-47.18 6.02Q-44.05 2.38-42.75-0.14L-42.75-0.14Q-41.92-3.27-40.66-3.27L-40.66-3.27Q-39.83-3.27-39.83-2.55Q-39.83-1.83-40.73-0.72L-40.73-0.72L-41.60 0.44Q-41.60 1.19-40.48 1.19L-40.48 1.19Q-39.83 1.19-39.04 0.72L-39.04 0.72L-38.11 0.15Q-38.03 0.11-37.75 0.11Q-37.46 0.11-37.13 0.47Q-36.81 0.83-36.92 1.12L-36.92 1.12L-39.40 4.25Q-41.71 7.20-41.71 8.91Q-41.71 10.63-40.12 10.63L-40.12 10.63Q-38.47 10.63-36.05 8.86L-36.05 8.86Q-34.61 7.82-33.43 6.52L-33.43 6.52Q-32.31 5.22-32.20 5.22L-32.20 5.22Q-31.95 5.22-31.95 5.49Q-31.95 5.76-32.27 6.12L-32.27 6.12L-33.43 7.42Q-34.40 8.43-35.59 9.36L-35.59 9.36Q-38.43 11.49-40.27 11.49ZM-25.61-3.38Q-25.07-3.38-24.59-3.04Q-24.10-2.70-24.10-2.23Q-24.10-1.76-24.55-1.42Q-25.00-1.08-25.54-1.08Q-26.08-1.08-26.53-1.47Q-26.98-1.87-26.98-2.37L-26.98-2.37Q-26.98-3.38-25.61-3.38L-25.61-3.38ZM-32.13 11.71L-32.13 11.71Q-33.97 11.71-33.97 9.33L-33.97 9.33Q-33.97 7.38-31.84 3.95Q-29.72 0.51-28.42 0.47L-28.42 0.47Q-28.06 0.47-27.61 0.76Q-27.16 1.05-27.16 1.34L-27.16 1.34Q-27.34 1.59-27.59 1.89Q-27.85 2.20-28.13 2.56Q-28.42 2.92-28.93 3.59Q-29.43 4.25-29.90 4.86L-29.90 4.86Q-32.60 8.36-32.60 9.67Q-32.60 10.98-31.70 10.98L-31.70 10.98Q-30.94 10.98-29.65 10.16L-29.65 10.16Q-26.62 8.28-24.86 6.05L-24.86 6.05Q-24.21 5.22-23.98 5.22Q-23.74 5.22-23.74 5.51Q-23.74 5.80-24.57 6.66Q-25.40 7.53-25.88 8.03Q-26.37 8.54-26.55 8.70Q-26.73 8.86-27.22 9.31Q-27.70 9.76-27.95 9.94Q-28.21 10.12-28.67 10.48Q-29.14 10.84-29.50 11.00Q-29.86 11.16-30.33 11.38L-30.33 11.38Q-31.09 11.71-32.13 11.71ZM-17.95-3.45Q-17.41-3.45-16.92-3.09Q-16.43-2.73-16.43-2.28Q-16.43-1.83-16.88-1.49Q-17.33-1.15-17.87-1.15Q-18.41-1.15-18.86-1.53Q-19.31-1.90-19.31-2.41L-19.31-2.41Q-19.31-3.45-17.95-3.45L-17.95-3.45ZM-18.63 1.52L-18.63 1.52Q-18.63 1.73-21.47 6.63L-21.47 6.63Q-24.25 11.92-25.76 14.01L-25.76 14.01Q-29.03 18.69-31.91 18.69L-31.91 18.69Q-32.99 18.69-33.91 17.99Q-34.83 17.29-34.83 16.58Q-34.83 15.88-34.51 15.88L-34.51 15.88Q-34.47 15.88-33.77 16.80Q-33.07 17.72-32.13 17.72L-32.13 17.72Q-29.25 17.72-25.58 11.20L-25.58 11.20Q-23.31 7.13-22.48 4.61L-22.48 4.61Q-22.91 5.12-23.98 6.09Q-25.04 7.06-25.27 7.06Q-25.51 7.06-25.51 6.95L-25.51 6.95Q-25.51 6.63-24.93 6.12Q-24.35 5.62-23.38 4.22Q-22.41 2.81-22.23 2.67L-22.23 2.67L-21.04 1.41Q-20.32 0.72-19.48 0.72Q-18.63 0.72-18.63 1.52ZM-10.24-3.38Q-9.70-3.38-9.22-3.04Q-8.73-2.70-8.73-2.23Q-8.73-1.76-9.18-1.42Q-9.63-1.08-10.17-1.08Q-10.71-1.08-11.16-1.47Q-11.61-1.87-11.61-2.37L-11.61-2.37Q-11.61-3.38-10.24-3.38L-10.24-3.38ZM-16.76 11.71L-16.76 11.71Q-18.59 11.71-18.59 9.33L-18.59 9.33Q-18.59 7.38-16.47 3.95Q-14.35 0.51-13.05 0.47L-13.05 0.47Q-12.69 0.47-12.24 0.76Q-11.79 1.05-11.79 1.34L-11.79 1.34Q-11.97 1.59-12.22 1.89Q-12.47 2.20-12.76 2.56Q-13.05 2.92-13.55 3.59Q-14.06 4.25-14.53 4.86L-14.53 4.86Q-17.23 8.36-17.23 9.67Q-17.23 10.98-16.33 10.98L-16.33 10.98Q-15.57 10.98-14.27 10.16L-14.27 10.16Q-11.25 8.28-9.49 6.05L-9.49 6.05Q-8.84 5.22-8.60 5.22Q-8.37 5.22-8.37 5.51Q-8.37 5.80-9.20 6.66Q-10.03 7.53-10.51 8.03Q-11.00 8.54-11.18 8.70Q-11.36 8.86-11.84 9.31Q-12.33 9.76-12.58 9.94Q-12.83 10.12-13.30 10.48Q-13.77 10.84-14.13 11.00Q-14.49 11.16-14.96 11.38L-14.96 11.38Q-15.71 11.71-16.76 11.71ZM-0.52-0.28L-0.52-0.28L4.66-0.36Q4.77-0.28 4.77-0.25L4.77-0.25Q4.77 0.08 0.29 0.65Q-4.19 1.23-4.55 1.34L-4.55 1.34Q-5.24 1.95-7.07 4.99Q-8.91 8.03-8.91 9.44L-8.91 9.44Q-8.91 10.77-7.07 10.77L-7.07 10.77Q-6.21 10.77-4.81 10.23Q-3.40 9.69-2.65 9.22L-2.65 9.22Q-0.63 7.96 1.67 5.51L1.67 5.51Q2.18 5.01 2.36 5.01L2.36 5.01Q2.47 5.01 2.47 5.22Q2.47 5.44 1.93 6.09L1.93 6.09Q0.05 8.39-2.29 9.80L-2.29 9.80Q-5.09 11.52-7.65 11.52L-7.65 11.52Q-8.77 11.52-9.47 11.04Q-10.17 10.55-10.17 9.08Q-10.17 7.60-8.87 5.03Q-7.58 2.45-6.89 1.19L-6.89 1.19Q-7.40 1.30-7.76 1.30L-7.76 1.30Q-8.80 1.30-8.80 0.47L-8.80 0.47Q-8.80-0.14-7.94-0.39L-7.94-0.39Q-7.83-0.39-7.61-0.43L-7.61-0.43L-5.53-0.43Q-4.88-1.26-4.05-2.34L-4.05-2.34Q-3.04-3.63-2.68-3.63Q-2.32-3.63-1.78-3.34Q-1.24-3.06-1.24-2.66Q-1.24-2.26-2.97-0.32L-2.97-0.32Q-2.03-0.28-0.52-0.28ZM36.38-4.10L36.38-4.10Q35.05-3.56 34.09-3.56Q33.14-3.56 33.14-3.96L33.14-3.96Q33.14-4.21 34.20-4.24Q35.26-4.28 35.73-4.50L35.73-4.50Q37.10-5.22 37.10-6.62L37.10-6.62Q37.10-7.34 36.70-8.13L36.70-8.13Q35.55-10.18 31.12-10.18L31.12-10.18Q28.57-10.18 26.01-9.41Q23.45-8.64 21.73-7.03Q20.00-5.43 20.00-4.06L20.00-4.06Q20.00-1.98 24.14-1.00L24.14-1.00L28.39-0.21Q30.94 0.26 32.20 1.08L32.20 1.08Q33.86 2.09 33.86 3.96L33.86 3.96Q33.86 4.72 33.61 5.58L33.61 5.58Q32.45 9.47 27.67 11.52L27.67 11.52Q23.67 13.29 18.23 13.29L18.23 13.29Q16.69 13.29 15.53 13.14L15.53 13.14Q16.69 13.79 18.56 14.26L18.56 14.26Q18.70 14.30 18.70 14.40L18.70 14.40Q18.70 14.73 17.95 14.73L17.95 14.73Q16.47 14.73 14.27 12.96L14.27 12.96Q11.29 12.50 9.81 11.31L9.81 11.31Q8.87 10.55 8.08 9.08Q7.29 7.60 7.29 6.41Q7.29 5.22 7.76 4.43L7.76 4.43Q8.84 2.52 10.49 2.52L10.49 2.52Q11.75 2.52 11.97 4.65L11.97 4.65Q12.47 8.75 12.65 9.33L12.65 9.33Q13.19 11.09 14.49 12.32L14.49 12.32Q16.00 12.64 17.77 12.64L17.77 12.64Q21.65 12.64 25.40 11.09Q29.14 9.54 30.80 6.70L30.80 6.70Q31.48 5.58 31.48 4.72L31.48 4.72Q31.48 3.03 28.49 2.09L28.49 2.09L22.16 0.65Q20.21 0.18 19.04-0.90Q17.87-1.98 17.87-3.38L17.87-3.38Q17.87-5.54 20.57-7.70L20.57-7.70Q22.63-9.36 25.60-10.27Q28.57-11.19 31.43-11.19Q34.29-11.19 36.16-10.36L36.16-10.36Q38.57-9.25 38.57-7.11Q38.57-4.96 36.38-4.10ZM13.19 11.96L13.19 11.96Q11.11 9.65 10.53 5.66L10.53 5.66Q10.21 3.39 9.92 3.39Q9.63 3.39 9.38 3.55Q9.13 3.71 8.87 4.25Q8.62 4.79 8.62 5.66L8.62 5.66Q8.62 8.43 10.57 10.41L10.57 10.41Q11.54 11.42 13.19 11.96ZM42.64-3.38Q43.18-3.38 43.67-3.04Q44.15-2.70 44.15-2.23Q44.15-1.76 43.70-1.42Q43.25-1.08 42.71-1.08Q42.17-1.08 41.72-1.47Q41.27-1.87 41.27-2.37L41.27-2.37Q41.27-3.38 42.64-3.38L42.64-3.38ZM36.13 11.71L36.13 11.71Q34.29 11.71 34.29 9.33L34.29 9.33Q34.29 7.38 36.41 3.95Q38.54 0.51 39.83 0.47L39.83 0.47Q40.19 0.47 40.64 0.76Q41.09 1.05 41.09 1.34L41.09 1.34Q40.91 1.59 40.66 1.89Q40.41 2.20 40.12 2.56Q39.83 2.92 39.33 3.59Q38.83 4.25 38.36 4.86L38.36 4.86Q35.66 8.36 35.66 9.67Q35.66 10.98 36.56 10.98L36.56 10.98Q37.31 10.98 38.61 10.16L38.61 10.16Q41.63 8.28 43.40 6.05L43.40 6.05Q44.05 5.22 44.28 5.22Q44.51 5.22 44.51 5.51Q44.51 5.80 43.69 6.66Q42.86 7.53 42.37 8.03Q41.89 8.54 41.71 8.70Q41.53 8.86 41.04 9.31Q40.55 9.76 40.30 9.94Q40.05 10.12 39.58 10.48Q39.11 10.84 38.75 11.00Q38.39 11.16 37.93 11.38L37.93 11.38Q37.17 11.71 36.13 11.71ZM48.76-0.07L48.76-0.07Q49.73-0.07 49.73 0.69L49.73 0.69Q49.73 0.90 49.63 1.12L49.63 1.12Q46.39 5.62 45.74 7.92L45.74 7.92Q54.13-0.46 55.93-0.46L55.93-0.46Q56.11-0.50 56.25-0.50L56.25-0.50Q57.26-0.50 57.26 0.40L57.26 0.40Q57.26 0.58 57.19 0.76Q57.11 0.94 55.75 2.70L55.75 2.70Q54.16 4.58 53.06 6.30Q51.97 8.03 51.97 9.18Q51.97 10.34 52.47 10.34L52.47 10.34Q54.05 10.34 57.98 5.98L57.98 5.98Q58.05 5.91 58.23 5.66L58.23 5.66Q58.77 5.01 58.88 5.01Q58.99 5.01 58.99 5.37Q58.99 5.73 58.48 6.30L58.48 6.30Q54.02 11.38 52.15 11.38L52.15 11.38Q50.38 11.38 50.38 9.44Q50.38 7.49 51.82 4.97L51.82 4.97L54.13 1.23Q51.68 3.03 49.77 5.17Q47.86 7.31 46.30 9.33Q44.73 11.34 44.48 11.34L44.48 11.34Q43.94 11.34 43.63 10.89Q43.33 10.44 43.33 9.78Q43.33 9.11 43.79 8.00Q44.26 6.88 44.98 5.30L44.98 5.30L42.82 7.56Q42.03 8.36 41.83 8.36Q41.63 8.36 41.63 8.12Q41.63 7.89 41.92 7.60L41.92 7.60Q43.25 6.27 44.23 5.04L44.23 5.04Q45.16 3.82 48.08 0.36L48.08 0.36Q48.40-0.07 48.76-0.07ZM69.50 0.33L69.50 0.33L70.00 0.22Q70.47 0.22 70.74 0.51Q71.01 0.80 71.01 0.96Q71.01 1.12 70.97 1.32Q70.94 1.52 69.93 3.14L69.93 3.14Q68.67 5.33 67.84 6.84L67.84 6.84Q64.93 12.28 63.38 14.30L63.38 14.30Q60.07 18.69 57.08 18.69L57.08 18.69Q56.03 18.69 55.26 17.81Q54.49 16.93 54.45 15.84L54.45 15.84Q54.56 15.41 54.77 15.41L54.77 15.41Q54.88 15.41 54.95 15.66L54.95 15.66Q55.13 16.60 55.64 17.11Q56.14 17.61 56.65 17.61L56.65 17.61Q58.70 17.61 61.04 14.91L61.04 14.91Q62.59 13.11 64.46 9.65L64.46 9.65L66.26 6.09L63.56 8.82Q60.97 11.31 60.01 11.31Q59.06 11.31 58.19 10.66L58.19 10.66Q57.22 9.94 57.22 8.75L57.22 8.75Q57.22 6.12 60.91 2.49Q64.60-1.15 67.63-1.15L67.63-1.15Q68.85-1.15 69.21-0.36L69.21-0.36Q69.32-0.07 69.39 0.13Q69.46 0.33 69.50 0.33ZM58.73 9.18L58.73 9.18Q58.73 10.48 59.63 10.48L59.63 10.48Q61.72 10.48 65.32 5.91L65.32 5.91L69.14 0.65Q68.92 0.15 68.24 0.15L68.24 0.15Q66.01 0.15 62.37 3.59Q58.73 7.02 58.73 9.18ZM79.33 11.16L79.33 11.16Q77.20 11.16 77.20 8.68L77.20 8.68Q77.20 7.28 78.19 5.57Q79.18 3.86 80.62 1.55L80.62 1.55Q76.01 3.86 72.27 8.36L72.27 8.36Q70.18 11.49 69.82 11.49L69.82 11.49Q68.78 11.49 68.78 10.88L68.78 10.88Q68.78 10.55 69.21 9.72L69.21 9.72Q72.70 3.50 74.50 0.62L74.50 0.62Q78.79-6.26 80.55-6.84L80.55-6.84Q80.62-6.87 80.69-6.87L80.69-6.87Q81.16-6.87 81.34-6.12L81.34-6.12Q81.23-5.36 77.60-0.64L77.60-0.64Q73.82 4.14 73.31 5.62L73.31 5.62Q74.65 4.65 77.96 2.34L77.96 2.34Q81.52-0.14 82.67-0.14Q83.83-0.14 83.83 0.76L83.83 0.76Q83.83 0.90 83.81 0.96Q83.79 1.01 81.31 4.36Q78.82 7.71 78.82 9.29L78.82 9.29Q78.82 10.12 79.43 10.12L79.43 10.12Q81.38 10.05 85.27 5.44L85.27 5.44Q85.59 5.12 85.75 5.12Q85.91 5.12 85.91 5.33L85.91 5.33Q85.91 6.05 82.35 9.22L82.35 9.22Q80.12 11.16 79.33 11.16Z"/></g>
</svg>